M48
; DRILL file {KiCad (6.0.0)} date Sun Feb 27 22:59:40 2022
; FORMAT={-:-/ absolute / metric / decimal}
; #@! TF.CreationDate,2022-02-27T22:59:40+01:00
; #@! TF.GenerationSoftware,Kicad,Pcbnew,(6.0.0)
; #@! TF.FileFunction,Plated,1,2,PTH
FMAT,2
METRIC
; #@! TA.AperFunction,Plated,PTH,ViaDrill
T1C0.400
; #@! TA.AperFunction,Plated,PTH,ComponentDrill
T2C0.890
; #@! TA.AperFunction,Plated,PTH,ComponentDrill
T3C1.020
; #@! TA.AperFunction,Plated,PTH,ComponentDrill
T4C1.100
; #@! TA.AperFunction,Plated,PTH,ComponentDrill
T5C1.300
; #@! TA.AperFunction,Plated,PTH,ComponentDrill
T6C2.010
; #@! TA.AperFunction,Plated,PTH,ComponentDrill
T7C3.200
%
G90
G05
T1
X152.5Y-63.5
X154.9Y-58.9
X161.0Y-38.5
X162.9Y-44.7
X164.75Y-38.5
X165.9Y-35.9
X166.637Y-31.5
X167.25Y-35.25
X167.5Y-40.0
X167.5Y-42.75
X169.25Y-42.75
X169.9Y-58.0
X170.0Y-54.3
X170.723Y-46.515
X171.25Y-42.75
X172.4Y-40.8
X176.8Y-35.6
X180.1Y-38.4
X185.8Y-43.8
X190.919Y-94.691
X190.964Y-90.591
X192.5Y-27.0
X194.15Y-103.8
X197.75Y-67.45
X201.8Y-44.8
X202.2Y-77.4
X202.4Y-34.6
X202.472Y-91.09
X202.572Y-95.04
X202.6Y-47.2
X202.65Y-39.55
X204.1Y-44.8
X206.25Y-74.25
X207.805Y-39.775
X208.98Y-69.17
X209.025Y-52.745
X210.604Y-46.878
X210.8Y-78.0
X211.0Y-97.2
X211.26Y-67.68
X211.495Y-35.325
X211.5Y-46.2
X212.7Y-46.0
X212.8Y-44.0
X214.0Y-31.0
X214.8Y-90.5
X215.3Y-59.6
X215.305Y-40.275
X216.4Y-107.6
X216.456Y-88.939
X216.5Y-81.0
X217.0Y-37.0
X218.0Y-97.0
X218.1Y-104.5
X220.307Y-87.763
X225.2Y-59.5
X226.165Y-92.675
X226.4Y-91.14
X229.307Y-82.263
T2
X221.5Y-35.5
X221.5Y-38.04
X221.5Y-70.5
X221.5Y-73.04
X221.507Y-105.53
X221.507Y-108.07
T3
X157.72Y-67.14
X157.72Y-69.68
X157.72Y-72.22
X157.72Y-74.76
X157.72Y-77.3
X157.72Y-79.84
X157.72Y-82.38
X157.72Y-84.92
X157.72Y-87.46
X157.72Y-90.0
X157.72Y-92.54
X157.72Y-95.08
X157.72Y-97.62
X157.72Y-100.16
X157.72Y-102.7
X157.72Y-105.24
X157.72Y-107.78
X157.72Y-110.32
X157.72Y-112.86
X157.72Y-115.4
X164.07Y-67.37
X166.61Y-67.37
X169.15Y-67.37
X175.5Y-67.14
X175.5Y-69.68
X175.5Y-72.22
X175.5Y-74.76
X175.5Y-77.3
X175.5Y-79.84
X175.5Y-82.38
X175.5Y-84.92
X175.5Y-87.46
X175.5Y-90.0
X175.5Y-92.54
X175.5Y-95.08
X175.5Y-97.62
X175.5Y-100.16
X175.5Y-102.7
X175.5Y-105.24
X175.5Y-107.78
X175.5Y-110.32
X175.5Y-112.86
X175.5Y-115.4
T4
X184.975Y-35.352
X184.975Y-37.892
X185.0Y-29.175
X185.0Y-31.715
X186.664Y-93.401
X186.664Y-95.941
X186.664Y-98.481
X188.6Y-29.46
X188.6Y-32.0
X188.6Y-35.1
X188.6Y-37.64
X197.968Y-93.35
X197.968Y-95.89
X197.968Y-98.43
T5
X210.0Y-112.0
X215.0Y-112.0
T6
X226.58Y-30.42
X226.58Y-40.58
X226.58Y-65.42
X226.58Y-75.58
X226.587Y-100.45
X226.587Y-110.61
T7
X150.0Y-113.0
X152.0Y-31.0
X191.0Y-85.0
X226.0Y-52.0
T0
M30
