%TF.GenerationSoftware,KiCad,Pcbnew,(6.0.0)*%
%TF.CreationDate,2022-02-27T22:59:39+01:00*%
%TF.ProjectId,board,626f6172-642e-46b6-9963-61645f706362,rev?*%
%TF.SameCoordinates,Original*%
%TF.FileFunction,Paste,Top*%
%TF.FilePolarity,Positive*%
%FSLAX46Y46*%
G04 Gerber Fmt 4.6, Leading zero omitted, Abs format (unit mm)*
G04 Created by KiCad (PCBNEW (6.0.0)) date 2022-02-27 22:59:39*
%MOMM*%
%LPD*%
G01*
G04 APERTURE LIST*
G04 Aperture macros list*
%AMRoundRect*
0 Rectangle with rounded corners*
0 $1 Rounding radius*
0 $2 $3 $4 $5 $6 $7 $8 $9 X,Y pos of 4 corners*
0 Add a 4 corners polygon primitive as box body*
4,1,4,$2,$3,$4,$5,$6,$7,$8,$9,$2,$3,0*
0 Add four circle primitives for the rounded corners*
1,1,$1+$1,$2,$3*
1,1,$1+$1,$4,$5*
1,1,$1+$1,$6,$7*
1,1,$1+$1,$8,$9*
0 Add four rect primitives between the rounded corners*
20,1,$1+$1,$2,$3,$4,$5,0*
20,1,$1+$1,$4,$5,$6,$7,0*
20,1,$1+$1,$6,$7,$8,$9,0*
20,1,$1+$1,$8,$9,$2,$3,0*%
G04 Aperture macros list end*
%ADD10RoundRect,0.237500X-0.250000X-0.237500X0.250000X-0.237500X0.250000X0.237500X-0.250000X0.237500X0*%
%ADD11RoundRect,0.237500X-0.237500X0.250000X-0.237500X-0.250000X0.237500X-0.250000X0.237500X0.250000X0*%
%ADD12RoundRect,0.237500X-0.287500X-0.237500X0.287500X-0.237500X0.287500X0.237500X-0.287500X0.237500X0*%
%ADD13RoundRect,0.237500X0.237500X-0.300000X0.237500X0.300000X-0.237500X0.300000X-0.237500X-0.300000X0*%
%ADD14RoundRect,0.150000X0.725000X0.150000X-0.725000X0.150000X-0.725000X-0.150000X0.725000X-0.150000X0*%
%ADD15R,1.900000X0.800000*%
%ADD16RoundRect,0.237500X0.250000X0.237500X-0.250000X0.237500X-0.250000X-0.237500X0.250000X-0.237500X0*%
%ADD17RoundRect,0.237500X0.237500X-0.250000X0.237500X0.250000X-0.237500X0.250000X-0.237500X-0.250000X0*%
%ADD18R,2.000000X2.000000*%
%ADD19RoundRect,0.237500X-0.237500X0.300000X-0.237500X-0.300000X0.237500X-0.300000X0.237500X0.300000X0*%
%ADD20RoundRect,0.150000X-0.825000X-0.150000X0.825000X-0.150000X0.825000X0.150000X-0.825000X0.150000X0*%
%ADD21RoundRect,0.250000X1.000000X-1.750000X1.000000X1.750000X-1.000000X1.750000X-1.000000X-1.750000X0*%
%ADD22RoundRect,0.250000X0.337500X0.475000X-0.337500X0.475000X-0.337500X-0.475000X0.337500X-0.475000X0*%
%ADD23RoundRect,0.150000X0.150000X-0.825000X0.150000X0.825000X-0.150000X0.825000X-0.150000X-0.825000X0*%
%ADD24RoundRect,0.237500X0.300000X0.237500X-0.300000X0.237500X-0.300000X-0.237500X0.300000X-0.237500X0*%
%ADD25RoundRect,0.250000X0.475000X-0.337500X0.475000X0.337500X-0.475000X0.337500X-0.475000X-0.337500X0*%
%ADD26RoundRect,0.100000X0.637500X-0.100000X0.637500X0.100000X-0.637500X0.100000X-0.637500X-0.100000X0*%
%ADD27RoundRect,0.100000X0.100000X-0.637500X0.100000X0.637500X-0.100000X0.637500X-0.100000X-0.637500X0*%
%ADD28RoundRect,0.237500X-0.300000X-0.237500X0.300000X-0.237500X0.300000X0.237500X-0.300000X0.237500X0*%
%ADD29RoundRect,0.237500X0.237500X-0.287500X0.237500X0.287500X-0.237500X0.287500X-0.237500X-0.287500X0*%
%ADD30RoundRect,0.250000X-1.000000X1.750000X-1.000000X-1.750000X1.000000X-1.750000X1.000000X1.750000X0*%
%ADD31RoundRect,0.250000X-0.475000X0.337500X-0.475000X-0.337500X0.475000X-0.337500X0.475000X0.337500X0*%
%ADD32R,2.750000X3.050000*%
%ADD33R,1.200000X2.200000*%
%ADD34RoundRect,0.150000X-0.150000X0.825000X-0.150000X-0.825000X0.150000X-0.825000X0.150000X0.825000X0*%
G04 APERTURE END LIST*
D10*
%TO.C,R301*%
X197575000Y-72000000D03*
X199400000Y-72000000D03*
%TD*%
D11*
%TO.C,R111*%
X178200000Y-48087500D03*
X178200000Y-49912500D03*
%TD*%
D12*
%TO.C,FB203*%
X210975000Y-100750000D03*
X212725000Y-100750000D03*
%TD*%
D13*
%TO.C,C205*%
X189218750Y-95028750D03*
X189218750Y-96753750D03*
%TD*%
D14*
%TO.C,U502*%
X209025000Y-52745000D03*
X209025000Y-51475000D03*
X209025000Y-50205000D03*
X209025000Y-48935000D03*
X209025000Y-47665000D03*
X209025000Y-46395000D03*
X209025000Y-45125000D03*
X209025000Y-43855000D03*
X214175000Y-43855000D03*
X214175000Y-45125000D03*
X214175000Y-46395000D03*
X214175000Y-47665000D03*
X214175000Y-48935000D03*
X214175000Y-50205000D03*
X214175000Y-51475000D03*
X214175000Y-52745000D03*
%TD*%
D15*
%TO.C,Q201*%
X188500000Y-109087500D03*
X188500000Y-110987500D03*
X191500000Y-110037500D03*
%TD*%
D16*
%TO.C,R508*%
X204987500Y-31300000D03*
X206812500Y-31300000D03*
%TD*%
D11*
%TO.C,R108*%
X176500000Y-62175000D03*
X176500000Y-64000000D03*
%TD*%
D10*
%TO.C,R201*%
X189087500Y-106537500D03*
X190912500Y-106537500D03*
%TD*%
D17*
%TO.C,R308*%
X213900000Y-76825000D03*
X213900000Y-75000000D03*
%TD*%
D18*
%TO.C,D101*%
X182000000Y-105350000D03*
X182000000Y-101150000D03*
%TD*%
D11*
%TO.C,R103*%
X151400000Y-69000000D03*
X151400000Y-70825000D03*
%TD*%
D19*
%TO.C,C308*%
X212150000Y-75000000D03*
X212150000Y-76725000D03*
%TD*%
D11*
%TO.C,R402*%
X224387500Y-79875000D03*
X224387500Y-81700000D03*
%TD*%
D16*
%TO.C,R109*%
X181687500Y-90200000D03*
X183512500Y-90200000D03*
%TD*%
D20*
%TO.C,U301*%
X206175000Y-69195000D03*
X206175000Y-70465000D03*
X206175000Y-71735000D03*
X206175000Y-73005000D03*
X211125000Y-73005000D03*
X211125000Y-71735000D03*
X211125000Y-70465000D03*
X211125000Y-69195000D03*
%TD*%
D16*
%TO.C,R112*%
X182712500Y-80000000D03*
X180887500Y-80000000D03*
%TD*%
D21*
%TO.C,C201*%
X203000000Y-112500000D03*
X203000000Y-104500000D03*
%TD*%
D22*
%TO.C,C206*%
X212637500Y-98650000D03*
X210562500Y-98650000D03*
%TD*%
D23*
%TO.C,U501*%
X211495000Y-40275000D03*
X212765000Y-40275000D03*
X214035000Y-40275000D03*
X215305000Y-40275000D03*
X215305000Y-35325000D03*
X214035000Y-35325000D03*
X212765000Y-35325000D03*
X211495000Y-35325000D03*
%TD*%
D17*
%TO.C,R102*%
X157220000Y-64012500D03*
X157220000Y-62187500D03*
%TD*%
D16*
%TO.C,R501*%
X216687500Y-48800000D03*
X218512500Y-48800000D03*
%TD*%
D11*
%TO.C,R410*%
X221480000Y-100417500D03*
X221480000Y-102242500D03*
%TD*%
D24*
%TO.C,C509*%
X187700000Y-26600000D03*
X185975000Y-26600000D03*
%TD*%
D25*
%TO.C,C203*%
X196500000Y-109500000D03*
X196500000Y-107425000D03*
%TD*%
D13*
%TO.C,C304*%
X201400000Y-74000000D03*
X201400000Y-75725000D03*
%TD*%
D10*
%TO.C,R305*%
X201325000Y-70250000D03*
X203150000Y-70250000D03*
%TD*%
D17*
%TO.C,R306*%
X201150000Y-66750000D03*
X201150000Y-68575000D03*
%TD*%
D19*
%TO.C,C307*%
X203150000Y-68475000D03*
X203150000Y-66750000D03*
%TD*%
D25*
%TO.C,C212*%
X214800000Y-92575000D03*
X214800000Y-90500000D03*
%TD*%
D24*
%TO.C,C508*%
X186112500Y-40111766D03*
X187837500Y-40111766D03*
%TD*%
D16*
%TO.C,R101*%
X152712500Y-74750000D03*
X150887500Y-74750000D03*
%TD*%
D26*
%TO.C,U102*%
X162837500Y-42900000D03*
X162837500Y-42250000D03*
X162837500Y-41600000D03*
X162837500Y-40950000D03*
X162837500Y-40300000D03*
X162837500Y-39650000D03*
X162837500Y-39000000D03*
X162837500Y-38350000D03*
X162837500Y-37700000D03*
X162837500Y-37050000D03*
X162837500Y-36400000D03*
X162837500Y-35750000D03*
X162837500Y-35100000D03*
D27*
X164600000Y-33337500D03*
X165250000Y-33337500D03*
X165900000Y-33337500D03*
X166550000Y-33337500D03*
X167200000Y-33337500D03*
X167850000Y-33337500D03*
X168500000Y-33337500D03*
X169150000Y-33337500D03*
X169800000Y-33337500D03*
X170450000Y-33337500D03*
X171100000Y-33337500D03*
X171750000Y-33337500D03*
X172400000Y-33337500D03*
D26*
X174162500Y-35100000D03*
X174162500Y-35750000D03*
X174162500Y-36400000D03*
X174162500Y-37050000D03*
X174162500Y-37700000D03*
X174162500Y-38350000D03*
X174162500Y-39000000D03*
X174162500Y-39650000D03*
X174162500Y-40300000D03*
X174162500Y-40950000D03*
X174162500Y-41600000D03*
X174162500Y-42250000D03*
X174162500Y-42900000D03*
D27*
X172400000Y-44662500D03*
X171750000Y-44662500D03*
X171100000Y-44662500D03*
X170450000Y-44662500D03*
X169800000Y-44662500D03*
X169150000Y-44662500D03*
X168500000Y-44662500D03*
X167850000Y-44662500D03*
X167200000Y-44662500D03*
X166550000Y-44662500D03*
X165900000Y-44662500D03*
X165250000Y-44662500D03*
X164600000Y-44662500D03*
%TD*%
D11*
%TO.C,R404*%
X222387500Y-83287500D03*
X222387500Y-85112500D03*
%TD*%
%TO.C,R405*%
X224387500Y-83287500D03*
X224387500Y-85112500D03*
%TD*%
%TO.C,R401*%
X222387500Y-79787500D03*
X222387500Y-81612500D03*
%TD*%
D10*
%TO.C,R310*%
X216025000Y-70400000D03*
X217850000Y-70400000D03*
%TD*%
D11*
%TO.C,R110*%
X179700000Y-48087500D03*
X179700000Y-49912500D03*
%TD*%
D16*
%TO.C,R105*%
X152712500Y-79900000D03*
X150887500Y-79900000D03*
%TD*%
D19*
%TO.C,C210*%
X200722500Y-91677500D03*
X200722500Y-93402500D03*
%TD*%
D28*
%TO.C,C405*%
X217387500Y-81837500D03*
X215662500Y-81837500D03*
%TD*%
D16*
%TO.C,R104*%
X152712500Y-77500000D03*
X150887500Y-77500000D03*
%TD*%
D10*
%TO.C,R409*%
X222475000Y-94700000D03*
X224300000Y-94700000D03*
%TD*%
%TO.C,R408*%
X217975000Y-94700000D03*
X219800000Y-94700000D03*
%TD*%
D19*
%TO.C,C211*%
X189218750Y-91528750D03*
X189218750Y-93253750D03*
%TD*%
D24*
%TO.C,C407*%
X227750000Y-85200000D03*
X226025000Y-85200000D03*
%TD*%
%TO.C,C408*%
X219750000Y-93200000D03*
X218025000Y-93200000D03*
%TD*%
D16*
%TO.C,R403*%
X220800000Y-81700000D03*
X218975000Y-81700000D03*
%TD*%
%TO.C,R504*%
X216687500Y-50800000D03*
X218512500Y-50800000D03*
%TD*%
D29*
%TO.C,FB201*%
X200722500Y-100265000D03*
X200722500Y-98515000D03*
%TD*%
D11*
%TO.C,R407*%
X219387500Y-89375000D03*
X219387500Y-91200000D03*
%TD*%
D13*
%TO.C,C306*%
X203150000Y-75725000D03*
X203150000Y-74000000D03*
%TD*%
D10*
%TO.C,R302*%
X197575000Y-70250000D03*
X199400000Y-70250000D03*
%TD*%
D16*
%TO.C,R502*%
X216687500Y-46800000D03*
X218512500Y-46800000D03*
%TD*%
D29*
%TO.C,FB202*%
X189218750Y-100403750D03*
X189218750Y-98653750D03*
%TD*%
D11*
%TO.C,R203*%
X206850000Y-97500000D03*
X206850000Y-99325000D03*
%TD*%
D16*
%TO.C,R505*%
X207287500Y-42200000D03*
X209112500Y-42200000D03*
%TD*%
D30*
%TO.C,C110*%
X153500000Y-36500000D03*
X153500000Y-44500000D03*
%TD*%
D16*
%TO.C,R115*%
X182712500Y-77500000D03*
X180887500Y-77500000D03*
%TD*%
D17*
%TO.C,R309*%
X213650000Y-70175000D03*
X213650000Y-72000000D03*
%TD*%
D13*
%TO.C,C507*%
X205400000Y-44075000D03*
X205400000Y-45800000D03*
%TD*%
D28*
%TO.C,C404*%
X219025000Y-83200000D03*
X220750000Y-83200000D03*
%TD*%
D13*
%TO.C,C305*%
X199400000Y-79400000D03*
X199400000Y-77675000D03*
%TD*%
D17*
%TO.C,R202*%
X208600000Y-99325000D03*
X208600000Y-97500000D03*
%TD*%
D31*
%TO.C,C209*%
X214800000Y-86500000D03*
X214800000Y-88575000D03*
%TD*%
D32*
%TO.C,U201*%
X208475000Y-87225000D03*
X211525000Y-87225000D03*
X211525000Y-90575000D03*
X208475000Y-90575000D03*
D33*
X207720000Y-95200000D03*
X210000000Y-95200000D03*
X212280000Y-95200000D03*
%TD*%
D11*
%TO.C,R107*%
X181400000Y-93687500D03*
X181400000Y-95512500D03*
%TD*%
D13*
%TO.C,C207*%
X202272500Y-96902500D03*
X202272500Y-95177500D03*
%TD*%
D11*
%TO.C,R506*%
X214035000Y-33112500D03*
X214035000Y-31287500D03*
%TD*%
%TO.C,R303*%
X199400000Y-73837500D03*
X199400000Y-75662500D03*
%TD*%
D10*
%TO.C,R406*%
X225975000Y-83200000D03*
X227800000Y-83200000D03*
%TD*%
D11*
%TO.C,R114*%
X174400000Y-45087500D03*
X174400000Y-46912500D03*
%TD*%
D10*
%TO.C,R304*%
X201325000Y-72000000D03*
X203150000Y-72000000D03*
%TD*%
D13*
%TO.C,C208*%
X190768750Y-95041250D03*
X190768750Y-96766250D03*
%TD*%
D16*
%TO.C,R507*%
X203487500Y-42300000D03*
X205312500Y-42300000D03*
%TD*%
D11*
%TO.C,R113*%
X181600000Y-69712500D03*
X181600000Y-67887500D03*
%TD*%
D28*
%TO.C,C406*%
X219025000Y-85200000D03*
X220750000Y-85200000D03*
%TD*%
%TO.C,C403*%
X226025000Y-81700000D03*
X227750000Y-81700000D03*
%TD*%
D25*
%TO.C,C202*%
X194000000Y-109500000D03*
X194000000Y-107425000D03*
%TD*%
D10*
%TO.C,R307*%
X208325000Y-75000000D03*
X210150000Y-75000000D03*
%TD*%
D16*
%TO.C,R503*%
X216687500Y-52800000D03*
X218512500Y-52800000D03*
%TD*%
D34*
%TO.C,U401*%
X225292500Y-87725000D03*
X224022500Y-87725000D03*
X222752500Y-87725000D03*
X221482500Y-87725000D03*
X221482500Y-92675000D03*
X222752500Y-92675000D03*
X224022500Y-92675000D03*
X225292500Y-92675000D03*
%TD*%
D11*
%TO.C,R106*%
X151600000Y-82275000D03*
X151600000Y-84100000D03*
%TD*%
D16*
%TO.C,R511*%
X201812500Y-36300000D03*
X199987500Y-36300000D03*
%TD*%
D23*
%TO.C,U503*%
X203995000Y-34825000D03*
X205265000Y-34825000D03*
X206535000Y-34825000D03*
X207805000Y-34825000D03*
X207805000Y-39775000D03*
X206535000Y-39775000D03*
X205265000Y-39775000D03*
X203995000Y-39775000D03*
%TD*%
D13*
%TO.C,C303*%
X199400000Y-66750000D03*
X199400000Y-68475000D03*
%TD*%
D16*
%TO.C,R509*%
X204987500Y-32800000D03*
X206812500Y-32800000D03*
%TD*%
D13*
%TO.C,C204*%
X200722500Y-96902500D03*
X200722500Y-95177500D03*
%TD*%
D16*
%TO.C,R510*%
X199987500Y-38300000D03*
X201812500Y-38300000D03*
%TD*%
D24*
%TO.C,C502*%
X211285000Y-42300000D03*
X213010000Y-42300000D03*
%TD*%
M02*
