%TF.GenerationSoftware,KiCad,Pcbnew,(6.0.0)*%
%TF.CreationDate,2022-02-27T22:59:39+01:00*%
%TF.ProjectId,board,626f6172-642e-46b6-9963-61645f706362,rev?*%
%TF.SameCoordinates,Original*%
%TF.FileFunction,Legend,Bot*%
%TF.FilePolarity,Positive*%
%FSLAX46Y46*%
G04 Gerber Fmt 4.6, Leading zero omitted, Abs format (unit mm)*
G04 Created by KiCad (PCBNEW (6.0.0)) date 2022-02-27 22:59:39*
%MOMM*%
%LPD*%
G01*
G04 APERTURE LIST*
%ADD10C,0.400000*%
%ADD11C,0.500000*%
%ADD12C,0.200000*%
%ADD13C,0.150000*%
%ADD14C,0.120000*%
G04 APERTURE END LIST*
D10*
X203095238Y-56794761D02*
X203095238Y-54794761D01*
X202333333Y-54794761D01*
X202142857Y-54890000D01*
X202047619Y-54985238D01*
X201952380Y-55175714D01*
X201952380Y-55461428D01*
X202047619Y-55651904D01*
X202142857Y-55747142D01*
X202333333Y-55842380D01*
X203095238Y-55842380D01*
X201095238Y-56794761D02*
X201095238Y-54794761D01*
X200142857Y-55747142D02*
X199476190Y-55747142D01*
X199190476Y-56794761D02*
X200142857Y-56794761D01*
X200142857Y-54794761D01*
X199190476Y-54794761D01*
X198523809Y-54794761D02*
X197190476Y-54794761D01*
X198523809Y-56794761D01*
X197190476Y-56794761D01*
X196047619Y-54794761D02*
X195666666Y-54794761D01*
X195476190Y-54890000D01*
X195285714Y-55080476D01*
X195190476Y-55461428D01*
X195190476Y-56128095D01*
X195285714Y-56509047D01*
X195476190Y-56699523D01*
X195666666Y-56794761D01*
X196047619Y-56794761D01*
X196238095Y-56699523D01*
X196428571Y-56509047D01*
X196523809Y-56128095D01*
X196523809Y-55461428D01*
X196428571Y-55080476D01*
X196238095Y-54890000D01*
X196047619Y-54794761D01*
X191666666Y-56604285D02*
X191761904Y-56699523D01*
X192047619Y-56794761D01*
X192238095Y-56794761D01*
X192523809Y-56699523D01*
X192714285Y-56509047D01*
X192809523Y-56318571D01*
X192904761Y-55937619D01*
X192904761Y-55651904D01*
X192809523Y-55270952D01*
X192714285Y-55080476D01*
X192523809Y-54890000D01*
X192238095Y-54794761D01*
X192047619Y-54794761D01*
X191761904Y-54890000D01*
X191666666Y-54985238D01*
X190428571Y-54794761D02*
X190047619Y-54794761D01*
X189857142Y-54890000D01*
X189666666Y-55080476D01*
X189571428Y-55461428D01*
X189571428Y-56128095D01*
X189666666Y-56509047D01*
X189857142Y-56699523D01*
X190047619Y-56794761D01*
X190428571Y-56794761D01*
X190619047Y-56699523D01*
X190809523Y-56509047D01*
X190904761Y-56128095D01*
X190904761Y-55461428D01*
X190809523Y-55080476D01*
X190619047Y-54890000D01*
X190428571Y-54794761D01*
X188714285Y-56794761D02*
X188714285Y-54794761D01*
X187571428Y-56794761D01*
X187571428Y-54794761D01*
X186904761Y-54794761D02*
X185761904Y-54794761D01*
X186333333Y-56794761D02*
X186333333Y-54794761D01*
X183952380Y-56794761D02*
X184619047Y-55842380D01*
X185095238Y-56794761D02*
X185095238Y-54794761D01*
X184333333Y-54794761D01*
X184142857Y-54890000D01*
X184047619Y-54985238D01*
X183952380Y-55175714D01*
X183952380Y-55461428D01*
X184047619Y-55651904D01*
X184142857Y-55747142D01*
X184333333Y-55842380D01*
X185095238Y-55842380D01*
X182714285Y-54794761D02*
X182333333Y-54794761D01*
X182142857Y-54890000D01*
X181952380Y-55080476D01*
X181857142Y-55461428D01*
X181857142Y-56128095D01*
X181952380Y-56509047D01*
X182142857Y-56699523D01*
X182333333Y-56794761D01*
X182714285Y-56794761D01*
X182904761Y-56699523D01*
X183095238Y-56509047D01*
X183190476Y-56128095D01*
X183190476Y-55461428D01*
X183095238Y-55080476D01*
X182904761Y-54890000D01*
X182714285Y-54794761D01*
X180047619Y-56794761D02*
X181000000Y-56794761D01*
X181000000Y-54794761D01*
X178428571Y-56794761D02*
X179380952Y-56794761D01*
X179380952Y-54794761D01*
X177761904Y-55747142D02*
X177095238Y-55747142D01*
X176809523Y-56794761D02*
X177761904Y-56794761D01*
X177761904Y-54794761D01*
X176809523Y-54794761D01*
X174809523Y-56794761D02*
X175476190Y-55842380D01*
X175952380Y-56794761D02*
X175952380Y-54794761D01*
X175190476Y-54794761D01*
X175000000Y-54890000D01*
X174904761Y-54985238D01*
X174809523Y-55175714D01*
X174809523Y-55461428D01*
X174904761Y-55651904D01*
X175000000Y-55747142D01*
X175190476Y-55842380D01*
X175952380Y-55842380D01*
X202476190Y-59443333D02*
X201523809Y-59443333D01*
X202666666Y-60014761D02*
X202000000Y-58014761D01*
X201333333Y-60014761D01*
X200666666Y-60014761D02*
X200666666Y-58014761D01*
X199523809Y-60014761D01*
X199523809Y-58014761D01*
X198857142Y-58014761D02*
X197714285Y-58014761D01*
X198285714Y-60014761D02*
X198285714Y-58014761D01*
X196666666Y-58014761D02*
X196285714Y-58014761D01*
X196095238Y-58110000D01*
X195904761Y-58300476D01*
X195809523Y-58681428D01*
X195809523Y-59348095D01*
X195904761Y-59729047D01*
X196095238Y-59919523D01*
X196285714Y-60014761D01*
X196666666Y-60014761D01*
X196857142Y-59919523D01*
X197047619Y-59729047D01*
X197142857Y-59348095D01*
X197142857Y-58681428D01*
X197047619Y-58300476D01*
X196857142Y-58110000D01*
X196666666Y-58014761D01*
X194952380Y-60014761D02*
X194952380Y-58014761D01*
X193809523Y-60014761D01*
X193809523Y-58014761D01*
X190380952Y-60014761D02*
X191333333Y-60014761D01*
X191333333Y-58014761D01*
X189333333Y-58014761D02*
X188952380Y-58014761D01*
X188761904Y-58110000D01*
X188571428Y-58300476D01*
X188476190Y-58681428D01*
X188476190Y-59348095D01*
X188571428Y-59729047D01*
X188761904Y-59919523D01*
X188952380Y-60014761D01*
X189333333Y-60014761D01*
X189523809Y-59919523D01*
X189714285Y-59729047D01*
X189809523Y-59348095D01*
X189809523Y-58681428D01*
X189714285Y-58300476D01*
X189523809Y-58110000D01*
X189333333Y-58014761D01*
X189523809Y-57348095D02*
X189428571Y-57443333D01*
X189523809Y-57538571D01*
X189619047Y-57443333D01*
X189523809Y-57348095D01*
X189523809Y-57538571D01*
X188761904Y-57348095D02*
X188666666Y-57443333D01*
X188761904Y-57538571D01*
X188857142Y-57443333D01*
X188761904Y-57348095D01*
X188761904Y-57538571D01*
X187238095Y-58014761D02*
X186857142Y-58014761D01*
X186666666Y-58110000D01*
X186476190Y-58300476D01*
X186380952Y-58681428D01*
X186380952Y-59348095D01*
X186476190Y-59729047D01*
X186666666Y-59919523D01*
X186857142Y-60014761D01*
X187238095Y-60014761D01*
X187428571Y-59919523D01*
X187619047Y-59729047D01*
X187714285Y-59348095D01*
X187714285Y-58681428D01*
X187619047Y-58300476D01*
X187428571Y-58110000D01*
X187238095Y-58014761D01*
X187428571Y-57348095D02*
X187333333Y-57443333D01*
X187428571Y-57538571D01*
X187523809Y-57443333D01*
X187428571Y-57348095D01*
X187428571Y-57538571D01*
X186666666Y-57348095D02*
X186571428Y-57443333D01*
X186666666Y-57538571D01*
X186761904Y-57443333D01*
X186666666Y-57348095D01*
X186666666Y-57538571D01*
X184857142Y-58967142D02*
X185523809Y-58967142D01*
X185523809Y-60014761D02*
X185523809Y-58014761D01*
X184571428Y-58014761D01*
X182380952Y-58205238D02*
X182285714Y-58110000D01*
X182095238Y-58014761D01*
X181619047Y-58014761D01*
X181428571Y-58110000D01*
X181333333Y-58205238D01*
X181238095Y-58395714D01*
X181238095Y-58586190D01*
X181333333Y-58871904D01*
X182476190Y-60014761D01*
X181238095Y-60014761D01*
X180000000Y-58014761D02*
X179809523Y-58014761D01*
X179619047Y-58110000D01*
X179523809Y-58205238D01*
X179428571Y-58395714D01*
X179333333Y-58776666D01*
X179333333Y-59252857D01*
X179428571Y-59633809D01*
X179523809Y-59824285D01*
X179619047Y-59919523D01*
X179809523Y-60014761D01*
X180000000Y-60014761D01*
X180190476Y-59919523D01*
X180285714Y-59824285D01*
X180380952Y-59633809D01*
X180476190Y-59252857D01*
X180476190Y-58776666D01*
X180380952Y-58395714D01*
X180285714Y-58205238D01*
X180190476Y-58110000D01*
X180000000Y-58014761D01*
X178571428Y-58205238D02*
X178476190Y-58110000D01*
X178285714Y-58014761D01*
X177809523Y-58014761D01*
X177619047Y-58110000D01*
X177523809Y-58205238D01*
X177428571Y-58395714D01*
X177428571Y-58586190D01*
X177523809Y-58871904D01*
X178666666Y-60014761D01*
X177428571Y-60014761D01*
X176666666Y-58205238D02*
X176571428Y-58110000D01*
X176380952Y-58014761D01*
X175904761Y-58014761D01*
X175714285Y-58110000D01*
X175619047Y-58205238D01*
X175523809Y-58395714D01*
X175523809Y-58586190D01*
X175619047Y-58871904D01*
X176761904Y-60014761D01*
X175523809Y-60014761D01*
D11*
X224785714Y-113500000D02*
X225071428Y-113357142D01*
X225500000Y-113357142D01*
X225928571Y-113500000D01*
X226214285Y-113785714D01*
X226357142Y-114071428D01*
X226500000Y-114642857D01*
X226500000Y-115071428D01*
X226357142Y-115642857D01*
X226214285Y-115928571D01*
X225928571Y-116214285D01*
X225500000Y-116357142D01*
X225214285Y-116357142D01*
X224785714Y-116214285D01*
X224642857Y-116071428D01*
X224642857Y-115071428D01*
X225214285Y-115071428D01*
X223357142Y-116357142D02*
X223357142Y-113357142D01*
X221642857Y-116357142D01*
X221642857Y-113357142D01*
X220214285Y-116357142D02*
X220214285Y-113357142D01*
X219500000Y-113357142D01*
X219071428Y-113500000D01*
X218785714Y-113785714D01*
X218642857Y-114071428D01*
X218500000Y-114642857D01*
X218500000Y-115071428D01*
X218642857Y-115642857D01*
X218785714Y-115928571D01*
X219071428Y-116214285D01*
X219500000Y-116357142D01*
X220214285Y-116357142D01*
X206285714Y-110357142D02*
X205285714Y-113357142D01*
X204285714Y-110357142D01*
X203285714Y-113357142D02*
X203285714Y-110357142D01*
X201857142Y-113357142D02*
X201857142Y-110357142D01*
X200142857Y-113357142D01*
X200142857Y-110357142D01*
X217428571Y-97857142D02*
X216857142Y-97857142D01*
X216571428Y-98000000D01*
X216285714Y-98285714D01*
X216142857Y-98857142D01*
X216142857Y-99857142D01*
X216285714Y-100428571D01*
X216571428Y-100714285D01*
X216857142Y-100857142D01*
X217428571Y-100857142D01*
X217714285Y-100714285D01*
X218000000Y-100428571D01*
X218142857Y-99857142D01*
X218142857Y-98857142D01*
X218000000Y-98285714D01*
X217714285Y-98000000D01*
X217428571Y-97857142D01*
X214857142Y-97857142D02*
X214857142Y-100285714D01*
X214714285Y-100571428D01*
X214571428Y-100714285D01*
X214285714Y-100857142D01*
X213714285Y-100857142D01*
X213428571Y-100714285D01*
X213285714Y-100571428D01*
X213142857Y-100285714D01*
X213142857Y-97857142D01*
X212142857Y-97857142D02*
X210428571Y-97857142D01*
X211285714Y-100857142D02*
X211285714Y-97857142D01*
X207857142Y-100857142D02*
X209571428Y-100857142D01*
X208714285Y-100857142D02*
X208714285Y-97857142D01*
X209000000Y-98285714D01*
X209285714Y-98571428D01*
X209571428Y-98714285D01*
X217428571Y-62857142D02*
X216857142Y-62857142D01*
X216571428Y-63000000D01*
X216285714Y-63285714D01*
X216142857Y-63857142D01*
X216142857Y-64857142D01*
X216285714Y-65428571D01*
X216571428Y-65714285D01*
X216857142Y-65857142D01*
X217428571Y-65857142D01*
X217714285Y-65714285D01*
X218000000Y-65428571D01*
X218142857Y-64857142D01*
X218142857Y-63857142D01*
X218000000Y-63285714D01*
X217714285Y-63000000D01*
X217428571Y-62857142D01*
X214857142Y-62857142D02*
X214857142Y-65285714D01*
X214714285Y-65571428D01*
X214571428Y-65714285D01*
X214285714Y-65857142D01*
X213714285Y-65857142D01*
X213428571Y-65714285D01*
X213285714Y-65571428D01*
X213142857Y-65285714D01*
X213142857Y-62857142D01*
X212142857Y-62857142D02*
X210428571Y-62857142D01*
X211285714Y-65857142D02*
X211285714Y-62857142D01*
X209571428Y-63142857D02*
X209428571Y-63000000D01*
X209142857Y-62857142D01*
X208428571Y-62857142D01*
X208142857Y-63000000D01*
X208000000Y-63142857D01*
X207857142Y-63428571D01*
X207857142Y-63714285D01*
X208000000Y-64142857D01*
X209714285Y-65857142D01*
X207857142Y-65857142D01*
X217871428Y-31057142D02*
X217871428Y-28057142D01*
X216442857Y-31057142D02*
X216442857Y-28057142D01*
X214728571Y-31057142D01*
X214728571Y-28057142D01*
D12*
X230652380Y-65980952D02*
X231366666Y-65980952D01*
X231509523Y-65933333D01*
X231604761Y-65838095D01*
X231652380Y-65695238D01*
X231652380Y-65600000D01*
X231652380Y-66933333D02*
X231652380Y-66457142D01*
X230652380Y-66457142D01*
X231557142Y-67838095D02*
X231604761Y-67790476D01*
X231652380Y-67647619D01*
X231652380Y-67552380D01*
X231604761Y-67409523D01*
X231509523Y-67314285D01*
X231414285Y-67266666D01*
X231223809Y-67219047D01*
X231080952Y-67219047D01*
X230890476Y-67266666D01*
X230795238Y-67314285D01*
X230700000Y-67409523D01*
X230652380Y-67552380D01*
X230652380Y-67647619D01*
X230700000Y-67790476D01*
X230747619Y-67838095D01*
X230652380Y-68552380D02*
X231366666Y-68552380D01*
X231509523Y-68504761D01*
X231604761Y-68409523D01*
X231652380Y-68266666D01*
X231652380Y-68171428D01*
X231652380Y-69504761D02*
X231652380Y-69028571D01*
X230652380Y-69028571D01*
X231557142Y-70409523D02*
X231604761Y-70361904D01*
X231652380Y-70219047D01*
X231652380Y-70123809D01*
X231604761Y-69980952D01*
X231509523Y-69885714D01*
X231414285Y-69838095D01*
X231223809Y-69790476D01*
X231080952Y-69790476D01*
X230890476Y-69838095D01*
X230795238Y-69885714D01*
X230700000Y-69980952D01*
X230652380Y-70123809D01*
X230652380Y-70219047D01*
X230700000Y-70361904D01*
X230747619Y-70409523D01*
X230652380Y-71123809D02*
X231366666Y-71123809D01*
X231509523Y-71076190D01*
X231604761Y-70980952D01*
X231652380Y-70838095D01*
X231652380Y-70742857D01*
X231652380Y-72076190D02*
X231652380Y-71600000D01*
X230652380Y-71600000D01*
X231557142Y-72980952D02*
X231604761Y-72933333D01*
X231652380Y-72790476D01*
X231652380Y-72695238D01*
X231604761Y-72552380D01*
X231509523Y-72457142D01*
X231414285Y-72409523D01*
X231223809Y-72361904D01*
X231080952Y-72361904D01*
X230890476Y-72409523D01*
X230795238Y-72457142D01*
X230700000Y-72552380D01*
X230652380Y-72695238D01*
X230652380Y-72790476D01*
X230700000Y-72933333D01*
X230747619Y-72980952D01*
X230652380Y-73695238D02*
X231366666Y-73695238D01*
X231509523Y-73647619D01*
X231604761Y-73552380D01*
X231652380Y-73409523D01*
X231652380Y-73314285D01*
X231652380Y-74647619D02*
X231652380Y-74171428D01*
X230652380Y-74171428D01*
X231557142Y-75552380D02*
X231604761Y-75504761D01*
X231652380Y-75361904D01*
X231652380Y-75266666D01*
X231604761Y-75123809D01*
X231509523Y-75028571D01*
X231414285Y-74980952D01*
X231223809Y-74933333D01*
X231080952Y-74933333D01*
X230890476Y-74980952D01*
X230795238Y-75028571D01*
X230700000Y-75123809D01*
X230652380Y-75266666D01*
X230652380Y-75361904D01*
X230700000Y-75504761D01*
X230747619Y-75552380D01*
D13*
%TO.C,FB501*%
X216358571Y-36014285D02*
X216358571Y-35680952D01*
X216882380Y-35680952D02*
X215882380Y-35680952D01*
X215882380Y-36157142D01*
X216358571Y-36871428D02*
X216406190Y-37014285D01*
X216453809Y-37061904D01*
X216549047Y-37109523D01*
X216691904Y-37109523D01*
X216787142Y-37061904D01*
X216834761Y-37014285D01*
X216882380Y-36919047D01*
X216882380Y-36538095D01*
X215882380Y-36538095D01*
X215882380Y-36871428D01*
X215930000Y-36966666D01*
X215977619Y-37014285D01*
X216072857Y-37061904D01*
X216168095Y-37061904D01*
X216263333Y-37014285D01*
X216310952Y-36966666D01*
X216358571Y-36871428D01*
X216358571Y-36538095D01*
X215882380Y-38014285D02*
X215882380Y-37538095D01*
X216358571Y-37490476D01*
X216310952Y-37538095D01*
X216263333Y-37633333D01*
X216263333Y-37871428D01*
X216310952Y-37966666D01*
X216358571Y-38014285D01*
X216453809Y-38061904D01*
X216691904Y-38061904D01*
X216787142Y-38014285D01*
X216834761Y-37966666D01*
X216882380Y-37871428D01*
X216882380Y-37633333D01*
X216834761Y-37538095D01*
X216787142Y-37490476D01*
X215882380Y-38680952D02*
X215882380Y-38776190D01*
X215930000Y-38871428D01*
X215977619Y-38919047D01*
X216072857Y-38966666D01*
X216263333Y-39014285D01*
X216501428Y-39014285D01*
X216691904Y-38966666D01*
X216787142Y-38919047D01*
X216834761Y-38871428D01*
X216882380Y-38776190D01*
X216882380Y-38680952D01*
X216834761Y-38585714D01*
X216787142Y-38538095D01*
X216691904Y-38490476D01*
X216501428Y-38442857D01*
X216263333Y-38442857D01*
X216072857Y-38490476D01*
X215977619Y-38538095D01*
X215930000Y-38585714D01*
X215882380Y-38680952D01*
X216882380Y-39966666D02*
X216882380Y-39395238D01*
X216882380Y-39680952D02*
X215882380Y-39680952D01*
X216025238Y-39585714D01*
X216120476Y-39490476D01*
X216168095Y-39395238D01*
%TO.C,C105*%
X171369047Y-35357142D02*
X171416666Y-35404761D01*
X171559523Y-35452380D01*
X171654761Y-35452380D01*
X171797619Y-35404761D01*
X171892857Y-35309523D01*
X171940476Y-35214285D01*
X171988095Y-35023809D01*
X171988095Y-34880952D01*
X171940476Y-34690476D01*
X171892857Y-34595238D01*
X171797619Y-34500000D01*
X171654761Y-34452380D01*
X171559523Y-34452380D01*
X171416666Y-34500000D01*
X171369047Y-34547619D01*
X170416666Y-35452380D02*
X170988095Y-35452380D01*
X170702380Y-35452380D02*
X170702380Y-34452380D01*
X170797619Y-34595238D01*
X170892857Y-34690476D01*
X170988095Y-34738095D01*
X169797619Y-34452380D02*
X169702380Y-34452380D01*
X169607142Y-34500000D01*
X169559523Y-34547619D01*
X169511904Y-34642857D01*
X169464285Y-34833333D01*
X169464285Y-35071428D01*
X169511904Y-35261904D01*
X169559523Y-35357142D01*
X169607142Y-35404761D01*
X169702380Y-35452380D01*
X169797619Y-35452380D01*
X169892857Y-35404761D01*
X169940476Y-35357142D01*
X169988095Y-35261904D01*
X170035714Y-35071428D01*
X170035714Y-34833333D01*
X169988095Y-34642857D01*
X169940476Y-34547619D01*
X169892857Y-34500000D01*
X169797619Y-34452380D01*
X168559523Y-34452380D02*
X169035714Y-34452380D01*
X169083333Y-34928571D01*
X169035714Y-34880952D01*
X168940476Y-34833333D01*
X168702380Y-34833333D01*
X168607142Y-34880952D01*
X168559523Y-34928571D01*
X168511904Y-35023809D01*
X168511904Y-35261904D01*
X168559523Y-35357142D01*
X168607142Y-35404761D01*
X168702380Y-35452380D01*
X168940476Y-35452380D01*
X169035714Y-35404761D01*
X169083333Y-35357142D01*
%TO.C,C106*%
X172369047Y-30357142D02*
X172416666Y-30404761D01*
X172559523Y-30452380D01*
X172654761Y-30452380D01*
X172797619Y-30404761D01*
X172892857Y-30309523D01*
X172940476Y-30214285D01*
X172988095Y-30023809D01*
X172988095Y-29880952D01*
X172940476Y-29690476D01*
X172892857Y-29595238D01*
X172797619Y-29500000D01*
X172654761Y-29452380D01*
X172559523Y-29452380D01*
X172416666Y-29500000D01*
X172369047Y-29547619D01*
X171416666Y-30452380D02*
X171988095Y-30452380D01*
X171702380Y-30452380D02*
X171702380Y-29452380D01*
X171797619Y-29595238D01*
X171892857Y-29690476D01*
X171988095Y-29738095D01*
X170797619Y-29452380D02*
X170702380Y-29452380D01*
X170607142Y-29500000D01*
X170559523Y-29547619D01*
X170511904Y-29642857D01*
X170464285Y-29833333D01*
X170464285Y-30071428D01*
X170511904Y-30261904D01*
X170559523Y-30357142D01*
X170607142Y-30404761D01*
X170702380Y-30452380D01*
X170797619Y-30452380D01*
X170892857Y-30404761D01*
X170940476Y-30357142D01*
X170988095Y-30261904D01*
X171035714Y-30071428D01*
X171035714Y-29833333D01*
X170988095Y-29642857D01*
X170940476Y-29547619D01*
X170892857Y-29500000D01*
X170797619Y-29452380D01*
X169607142Y-29452380D02*
X169797619Y-29452380D01*
X169892857Y-29500000D01*
X169940476Y-29547619D01*
X170035714Y-29690476D01*
X170083333Y-29880952D01*
X170083333Y-30261904D01*
X170035714Y-30357142D01*
X169988095Y-30404761D01*
X169892857Y-30452380D01*
X169702380Y-30452380D01*
X169607142Y-30404761D01*
X169559523Y-30357142D01*
X169511904Y-30261904D01*
X169511904Y-30023809D01*
X169559523Y-29928571D01*
X169607142Y-29880952D01*
X169702380Y-29833333D01*
X169892857Y-29833333D01*
X169988095Y-29880952D01*
X170035714Y-29928571D01*
X170083333Y-30023809D01*
%TO.C,C301*%
X205369047Y-72857142D02*
X205416666Y-72904761D01*
X205559523Y-72952380D01*
X205654761Y-72952380D01*
X205797619Y-72904761D01*
X205892857Y-72809523D01*
X205940476Y-72714285D01*
X205988095Y-72523809D01*
X205988095Y-72380952D01*
X205940476Y-72190476D01*
X205892857Y-72095238D01*
X205797619Y-72000000D01*
X205654761Y-71952380D01*
X205559523Y-71952380D01*
X205416666Y-72000000D01*
X205369047Y-72047619D01*
X205035714Y-71952380D02*
X204416666Y-71952380D01*
X204750000Y-72333333D01*
X204607142Y-72333333D01*
X204511904Y-72380952D01*
X204464285Y-72428571D01*
X204416666Y-72523809D01*
X204416666Y-72761904D01*
X204464285Y-72857142D01*
X204511904Y-72904761D01*
X204607142Y-72952380D01*
X204892857Y-72952380D01*
X204988095Y-72904761D01*
X205035714Y-72857142D01*
X203797619Y-71952380D02*
X203702380Y-71952380D01*
X203607142Y-72000000D01*
X203559523Y-72047619D01*
X203511904Y-72142857D01*
X203464285Y-72333333D01*
X203464285Y-72571428D01*
X203511904Y-72761904D01*
X203559523Y-72857142D01*
X203607142Y-72904761D01*
X203702380Y-72952380D01*
X203797619Y-72952380D01*
X203892857Y-72904761D01*
X203940476Y-72857142D01*
X203988095Y-72761904D01*
X204035714Y-72571428D01*
X204035714Y-72333333D01*
X203988095Y-72142857D01*
X203940476Y-72047619D01*
X203892857Y-72000000D01*
X203797619Y-71952380D01*
X202511904Y-72952380D02*
X203083333Y-72952380D01*
X202797619Y-72952380D02*
X202797619Y-71952380D01*
X202892857Y-72095238D01*
X202988095Y-72190476D01*
X203083333Y-72238095D01*
%TO.C,C503*%
X215287142Y-36680952D02*
X215334761Y-36633333D01*
X215382380Y-36490476D01*
X215382380Y-36395238D01*
X215334761Y-36252380D01*
X215239523Y-36157142D01*
X215144285Y-36109523D01*
X214953809Y-36061904D01*
X214810952Y-36061904D01*
X214620476Y-36109523D01*
X214525238Y-36157142D01*
X214430000Y-36252380D01*
X214382380Y-36395238D01*
X214382380Y-36490476D01*
X214430000Y-36633333D01*
X214477619Y-36680952D01*
X214382380Y-37585714D02*
X214382380Y-37109523D01*
X214858571Y-37061904D01*
X214810952Y-37109523D01*
X214763333Y-37204761D01*
X214763333Y-37442857D01*
X214810952Y-37538095D01*
X214858571Y-37585714D01*
X214953809Y-37633333D01*
X215191904Y-37633333D01*
X215287142Y-37585714D01*
X215334761Y-37538095D01*
X215382380Y-37442857D01*
X215382380Y-37204761D01*
X215334761Y-37109523D01*
X215287142Y-37061904D01*
X214382380Y-38252380D02*
X214382380Y-38347619D01*
X214430000Y-38442857D01*
X214477619Y-38490476D01*
X214572857Y-38538095D01*
X214763333Y-38585714D01*
X215001428Y-38585714D01*
X215191904Y-38538095D01*
X215287142Y-38490476D01*
X215334761Y-38442857D01*
X215382380Y-38347619D01*
X215382380Y-38252380D01*
X215334761Y-38157142D01*
X215287142Y-38109523D01*
X215191904Y-38061904D01*
X215001428Y-38014285D01*
X214763333Y-38014285D01*
X214572857Y-38061904D01*
X214477619Y-38109523D01*
X214430000Y-38157142D01*
X214382380Y-38252380D01*
X214382380Y-38919047D02*
X214382380Y-39538095D01*
X214763333Y-39204761D01*
X214763333Y-39347619D01*
X214810952Y-39442857D01*
X214858571Y-39490476D01*
X214953809Y-39538095D01*
X215191904Y-39538095D01*
X215287142Y-39490476D01*
X215334761Y-39442857D01*
X215382380Y-39347619D01*
X215382380Y-39061904D01*
X215334761Y-38966666D01*
X215287142Y-38919047D01*
%TO.C,C109*%
X171369047Y-41857142D02*
X171416666Y-41904761D01*
X171559523Y-41952380D01*
X171654761Y-41952380D01*
X171797619Y-41904761D01*
X171892857Y-41809523D01*
X171940476Y-41714285D01*
X171988095Y-41523809D01*
X171988095Y-41380952D01*
X171940476Y-41190476D01*
X171892857Y-41095238D01*
X171797619Y-41000000D01*
X171654761Y-40952380D01*
X171559523Y-40952380D01*
X171416666Y-41000000D01*
X171369047Y-41047619D01*
X170416666Y-41952380D02*
X170988095Y-41952380D01*
X170702380Y-41952380D02*
X170702380Y-40952380D01*
X170797619Y-41095238D01*
X170892857Y-41190476D01*
X170988095Y-41238095D01*
X169797619Y-40952380D02*
X169702380Y-40952380D01*
X169607142Y-41000000D01*
X169559523Y-41047619D01*
X169511904Y-41142857D01*
X169464285Y-41333333D01*
X169464285Y-41571428D01*
X169511904Y-41761904D01*
X169559523Y-41857142D01*
X169607142Y-41904761D01*
X169702380Y-41952380D01*
X169797619Y-41952380D01*
X169892857Y-41904761D01*
X169940476Y-41857142D01*
X169988095Y-41761904D01*
X170035714Y-41571428D01*
X170035714Y-41333333D01*
X169988095Y-41142857D01*
X169940476Y-41047619D01*
X169892857Y-41000000D01*
X169797619Y-40952380D01*
X168988095Y-41952380D02*
X168797619Y-41952380D01*
X168702380Y-41904761D01*
X168654761Y-41857142D01*
X168559523Y-41714285D01*
X168511904Y-41523809D01*
X168511904Y-41142857D01*
X168559523Y-41047619D01*
X168607142Y-41000000D01*
X168702380Y-40952380D01*
X168892857Y-40952380D01*
X168988095Y-41000000D01*
X169035714Y-41047619D01*
X169083333Y-41142857D01*
X169083333Y-41380952D01*
X169035714Y-41476190D01*
X168988095Y-41523809D01*
X168892857Y-41571428D01*
X168702380Y-41571428D01*
X168607142Y-41523809D01*
X168559523Y-41476190D01*
X168511904Y-41380952D01*
%TO.C,C112*%
X167619047Y-41927142D02*
X167666666Y-41974761D01*
X167809523Y-42022380D01*
X167904761Y-42022380D01*
X168047619Y-41974761D01*
X168142857Y-41879523D01*
X168190476Y-41784285D01*
X168238095Y-41593809D01*
X168238095Y-41450952D01*
X168190476Y-41260476D01*
X168142857Y-41165238D01*
X168047619Y-41070000D01*
X167904761Y-41022380D01*
X167809523Y-41022380D01*
X167666666Y-41070000D01*
X167619047Y-41117619D01*
X166666666Y-42022380D02*
X167238095Y-42022380D01*
X166952380Y-42022380D02*
X166952380Y-41022380D01*
X167047619Y-41165238D01*
X167142857Y-41260476D01*
X167238095Y-41308095D01*
X165714285Y-42022380D02*
X166285714Y-42022380D01*
X166000000Y-42022380D02*
X166000000Y-41022380D01*
X166095238Y-41165238D01*
X166190476Y-41260476D01*
X166285714Y-41308095D01*
X165333333Y-41117619D02*
X165285714Y-41070000D01*
X165190476Y-41022380D01*
X164952380Y-41022380D01*
X164857142Y-41070000D01*
X164809523Y-41117619D01*
X164761904Y-41212857D01*
X164761904Y-41308095D01*
X164809523Y-41450952D01*
X165380952Y-42022380D01*
X164761904Y-42022380D01*
%TO.C,C504*%
X208387142Y-50780952D02*
X208434761Y-50733333D01*
X208482380Y-50590476D01*
X208482380Y-50495238D01*
X208434761Y-50352380D01*
X208339523Y-50257142D01*
X208244285Y-50209523D01*
X208053809Y-50161904D01*
X207910952Y-50161904D01*
X207720476Y-50209523D01*
X207625238Y-50257142D01*
X207530000Y-50352380D01*
X207482380Y-50495238D01*
X207482380Y-50590476D01*
X207530000Y-50733333D01*
X207577619Y-50780952D01*
X207482380Y-51685714D02*
X207482380Y-51209523D01*
X207958571Y-51161904D01*
X207910952Y-51209523D01*
X207863333Y-51304761D01*
X207863333Y-51542857D01*
X207910952Y-51638095D01*
X207958571Y-51685714D01*
X208053809Y-51733333D01*
X208291904Y-51733333D01*
X208387142Y-51685714D01*
X208434761Y-51638095D01*
X208482380Y-51542857D01*
X208482380Y-51304761D01*
X208434761Y-51209523D01*
X208387142Y-51161904D01*
X207482380Y-52352380D02*
X207482380Y-52447619D01*
X207530000Y-52542857D01*
X207577619Y-52590476D01*
X207672857Y-52638095D01*
X207863333Y-52685714D01*
X208101428Y-52685714D01*
X208291904Y-52638095D01*
X208387142Y-52590476D01*
X208434761Y-52542857D01*
X208482380Y-52447619D01*
X208482380Y-52352380D01*
X208434761Y-52257142D01*
X208387142Y-52209523D01*
X208291904Y-52161904D01*
X208101428Y-52114285D01*
X207863333Y-52114285D01*
X207672857Y-52161904D01*
X207577619Y-52209523D01*
X207530000Y-52257142D01*
X207482380Y-52352380D01*
X207815714Y-53542857D02*
X208482380Y-53542857D01*
X207434761Y-53304761D02*
X208149047Y-53066666D01*
X208149047Y-53685714D01*
%TO.C,C113*%
X159927142Y-39243452D02*
X159974761Y-39195833D01*
X160022380Y-39052976D01*
X160022380Y-38957738D01*
X159974761Y-38814880D01*
X159879523Y-38719642D01*
X159784285Y-38672023D01*
X159593809Y-38624404D01*
X159450952Y-38624404D01*
X159260476Y-38672023D01*
X159165238Y-38719642D01*
X159070000Y-38814880D01*
X159022380Y-38957738D01*
X159022380Y-39052976D01*
X159070000Y-39195833D01*
X159117619Y-39243452D01*
X160022380Y-40195833D02*
X160022380Y-39624404D01*
X160022380Y-39910119D02*
X159022380Y-39910119D01*
X159165238Y-39814880D01*
X159260476Y-39719642D01*
X159308095Y-39624404D01*
X160022380Y-41148214D02*
X160022380Y-40576785D01*
X160022380Y-40862500D02*
X159022380Y-40862500D01*
X159165238Y-40767261D01*
X159260476Y-40672023D01*
X159308095Y-40576785D01*
X159022380Y-41481547D02*
X159022380Y-42100595D01*
X159403333Y-41767261D01*
X159403333Y-41910119D01*
X159450952Y-42005357D01*
X159498571Y-42052976D01*
X159593809Y-42100595D01*
X159831904Y-42100595D01*
X159927142Y-42052976D01*
X159974761Y-42005357D01*
X160022380Y-41910119D01*
X160022380Y-41624404D01*
X159974761Y-41529166D01*
X159927142Y-41481547D01*
%TO.C,C104*%
X164857142Y-34630952D02*
X164904761Y-34583333D01*
X164952380Y-34440476D01*
X164952380Y-34345238D01*
X164904761Y-34202380D01*
X164809523Y-34107142D01*
X164714285Y-34059523D01*
X164523809Y-34011904D01*
X164380952Y-34011904D01*
X164190476Y-34059523D01*
X164095238Y-34107142D01*
X164000000Y-34202380D01*
X163952380Y-34345238D01*
X163952380Y-34440476D01*
X164000000Y-34583333D01*
X164047619Y-34630952D01*
X164952380Y-35583333D02*
X164952380Y-35011904D01*
X164952380Y-35297619D02*
X163952380Y-35297619D01*
X164095238Y-35202380D01*
X164190476Y-35107142D01*
X164238095Y-35011904D01*
X163952380Y-36202380D02*
X163952380Y-36297619D01*
X164000000Y-36392857D01*
X164047619Y-36440476D01*
X164142857Y-36488095D01*
X164333333Y-36535714D01*
X164571428Y-36535714D01*
X164761904Y-36488095D01*
X164857142Y-36440476D01*
X164904761Y-36392857D01*
X164952380Y-36297619D01*
X164952380Y-36202380D01*
X164904761Y-36107142D01*
X164857142Y-36059523D01*
X164761904Y-36011904D01*
X164571428Y-35964285D01*
X164333333Y-35964285D01*
X164142857Y-36011904D01*
X164047619Y-36059523D01*
X164000000Y-36107142D01*
X163952380Y-36202380D01*
X164285714Y-37392857D02*
X164952380Y-37392857D01*
X163904761Y-37154761D02*
X164619047Y-36916666D01*
X164619047Y-37535714D01*
%TO.C,C108*%
X172369047Y-31857142D02*
X172416666Y-31904761D01*
X172559523Y-31952380D01*
X172654761Y-31952380D01*
X172797619Y-31904761D01*
X172892857Y-31809523D01*
X172940476Y-31714285D01*
X172988095Y-31523809D01*
X172988095Y-31380952D01*
X172940476Y-31190476D01*
X172892857Y-31095238D01*
X172797619Y-31000000D01*
X172654761Y-30952380D01*
X172559523Y-30952380D01*
X172416666Y-31000000D01*
X172369047Y-31047619D01*
X171416666Y-31952380D02*
X171988095Y-31952380D01*
X171702380Y-31952380D02*
X171702380Y-30952380D01*
X171797619Y-31095238D01*
X171892857Y-31190476D01*
X171988095Y-31238095D01*
X170797619Y-30952380D02*
X170702380Y-30952380D01*
X170607142Y-31000000D01*
X170559523Y-31047619D01*
X170511904Y-31142857D01*
X170464285Y-31333333D01*
X170464285Y-31571428D01*
X170511904Y-31761904D01*
X170559523Y-31857142D01*
X170607142Y-31904761D01*
X170702380Y-31952380D01*
X170797619Y-31952380D01*
X170892857Y-31904761D01*
X170940476Y-31857142D01*
X170988095Y-31761904D01*
X171035714Y-31571428D01*
X171035714Y-31333333D01*
X170988095Y-31142857D01*
X170940476Y-31047619D01*
X170892857Y-31000000D01*
X170797619Y-30952380D01*
X169892857Y-31380952D02*
X169988095Y-31333333D01*
X170035714Y-31285714D01*
X170083333Y-31190476D01*
X170083333Y-31142857D01*
X170035714Y-31047619D01*
X169988095Y-31000000D01*
X169892857Y-30952380D01*
X169702380Y-30952380D01*
X169607142Y-31000000D01*
X169559523Y-31047619D01*
X169511904Y-31142857D01*
X169511904Y-31190476D01*
X169559523Y-31285714D01*
X169607142Y-31333333D01*
X169702380Y-31380952D01*
X169892857Y-31380952D01*
X169988095Y-31428571D01*
X170035714Y-31476190D01*
X170083333Y-31571428D01*
X170083333Y-31761904D01*
X170035714Y-31857142D01*
X169988095Y-31904761D01*
X169892857Y-31952380D01*
X169702380Y-31952380D01*
X169607142Y-31904761D01*
X169559523Y-31857142D01*
X169511904Y-31761904D01*
X169511904Y-31571428D01*
X169559523Y-31476190D01*
X169607142Y-31428571D01*
X169702380Y-31380952D01*
%TO.C,C501*%
X213787142Y-36680952D02*
X213834761Y-36633333D01*
X213882380Y-36490476D01*
X213882380Y-36395238D01*
X213834761Y-36252380D01*
X213739523Y-36157142D01*
X213644285Y-36109523D01*
X213453809Y-36061904D01*
X213310952Y-36061904D01*
X213120476Y-36109523D01*
X213025238Y-36157142D01*
X212930000Y-36252380D01*
X212882380Y-36395238D01*
X212882380Y-36490476D01*
X212930000Y-36633333D01*
X212977619Y-36680952D01*
X212882380Y-37585714D02*
X212882380Y-37109523D01*
X213358571Y-37061904D01*
X213310952Y-37109523D01*
X213263333Y-37204761D01*
X213263333Y-37442857D01*
X213310952Y-37538095D01*
X213358571Y-37585714D01*
X213453809Y-37633333D01*
X213691904Y-37633333D01*
X213787142Y-37585714D01*
X213834761Y-37538095D01*
X213882380Y-37442857D01*
X213882380Y-37204761D01*
X213834761Y-37109523D01*
X213787142Y-37061904D01*
X212882380Y-38252380D02*
X212882380Y-38347619D01*
X212930000Y-38442857D01*
X212977619Y-38490476D01*
X213072857Y-38538095D01*
X213263333Y-38585714D01*
X213501428Y-38585714D01*
X213691904Y-38538095D01*
X213787142Y-38490476D01*
X213834761Y-38442857D01*
X213882380Y-38347619D01*
X213882380Y-38252380D01*
X213834761Y-38157142D01*
X213787142Y-38109523D01*
X213691904Y-38061904D01*
X213501428Y-38014285D01*
X213263333Y-38014285D01*
X213072857Y-38061904D01*
X212977619Y-38109523D01*
X212930000Y-38157142D01*
X212882380Y-38252380D01*
X213882380Y-39538095D02*
X213882380Y-38966666D01*
X213882380Y-39252380D02*
X212882380Y-39252380D01*
X213025238Y-39157142D01*
X213120476Y-39061904D01*
X213168095Y-38966666D01*
%TO.C,C103*%
X169869047Y-38857142D02*
X169916666Y-38904761D01*
X170059523Y-38952380D01*
X170154761Y-38952380D01*
X170297619Y-38904761D01*
X170392857Y-38809523D01*
X170440476Y-38714285D01*
X170488095Y-38523809D01*
X170488095Y-38380952D01*
X170440476Y-38190476D01*
X170392857Y-38095238D01*
X170297619Y-38000000D01*
X170154761Y-37952380D01*
X170059523Y-37952380D01*
X169916666Y-38000000D01*
X169869047Y-38047619D01*
X168916666Y-38952380D02*
X169488095Y-38952380D01*
X169202380Y-38952380D02*
X169202380Y-37952380D01*
X169297619Y-38095238D01*
X169392857Y-38190476D01*
X169488095Y-38238095D01*
X168297619Y-37952380D02*
X168202380Y-37952380D01*
X168107142Y-38000000D01*
X168059523Y-38047619D01*
X168011904Y-38142857D01*
X167964285Y-38333333D01*
X167964285Y-38571428D01*
X168011904Y-38761904D01*
X168059523Y-38857142D01*
X168107142Y-38904761D01*
X168202380Y-38952380D01*
X168297619Y-38952380D01*
X168392857Y-38904761D01*
X168440476Y-38857142D01*
X168488095Y-38761904D01*
X168535714Y-38571428D01*
X168535714Y-38333333D01*
X168488095Y-38142857D01*
X168440476Y-38047619D01*
X168392857Y-38000000D01*
X168297619Y-37952380D01*
X167630952Y-37952380D02*
X167011904Y-37952380D01*
X167345238Y-38333333D01*
X167202380Y-38333333D01*
X167107142Y-38380952D01*
X167059523Y-38428571D01*
X167011904Y-38523809D01*
X167011904Y-38761904D01*
X167059523Y-38857142D01*
X167107142Y-38904761D01*
X167202380Y-38952380D01*
X167488095Y-38952380D01*
X167583333Y-38904761D01*
X167630952Y-38857142D01*
%TO.C,C401*%
X220119047Y-91857142D02*
X220166666Y-91904761D01*
X220309523Y-91952380D01*
X220404761Y-91952380D01*
X220547619Y-91904761D01*
X220642857Y-91809523D01*
X220690476Y-91714285D01*
X220738095Y-91523809D01*
X220738095Y-91380952D01*
X220690476Y-91190476D01*
X220642857Y-91095238D01*
X220547619Y-91000000D01*
X220404761Y-90952380D01*
X220309523Y-90952380D01*
X220166666Y-91000000D01*
X220119047Y-91047619D01*
X219261904Y-91285714D02*
X219261904Y-91952380D01*
X219500000Y-90904761D02*
X219738095Y-91619047D01*
X219119047Y-91619047D01*
X218547619Y-90952380D02*
X218452380Y-90952380D01*
X218357142Y-91000000D01*
X218309523Y-91047619D01*
X218261904Y-91142857D01*
X218214285Y-91333333D01*
X218214285Y-91571428D01*
X218261904Y-91761904D01*
X218309523Y-91857142D01*
X218357142Y-91904761D01*
X218452380Y-91952380D01*
X218547619Y-91952380D01*
X218642857Y-91904761D01*
X218690476Y-91857142D01*
X218738095Y-91761904D01*
X218785714Y-91571428D01*
X218785714Y-91333333D01*
X218738095Y-91142857D01*
X218690476Y-91047619D01*
X218642857Y-91000000D01*
X218547619Y-90952380D01*
X217261904Y-91952380D02*
X217833333Y-91952380D01*
X217547619Y-91952380D02*
X217547619Y-90952380D01*
X217642857Y-91095238D01*
X217738095Y-91190476D01*
X217833333Y-91238095D01*
%TO.C,C114*%
X169357142Y-49880952D02*
X169404761Y-49833333D01*
X169452380Y-49690476D01*
X169452380Y-49595238D01*
X169404761Y-49452380D01*
X169309523Y-49357142D01*
X169214285Y-49309523D01*
X169023809Y-49261904D01*
X168880952Y-49261904D01*
X168690476Y-49309523D01*
X168595238Y-49357142D01*
X168500000Y-49452380D01*
X168452380Y-49595238D01*
X168452380Y-49690476D01*
X168500000Y-49833333D01*
X168547619Y-49880952D01*
X169452380Y-50833333D02*
X169452380Y-50261904D01*
X169452380Y-50547619D02*
X168452380Y-50547619D01*
X168595238Y-50452380D01*
X168690476Y-50357142D01*
X168738095Y-50261904D01*
X169452380Y-51785714D02*
X169452380Y-51214285D01*
X169452380Y-51500000D02*
X168452380Y-51500000D01*
X168595238Y-51404761D01*
X168690476Y-51309523D01*
X168738095Y-51214285D01*
X168785714Y-52642857D02*
X169452380Y-52642857D01*
X168404761Y-52404761D02*
X169119047Y-52166666D01*
X169119047Y-52785714D01*
%TO.C,C115*%
X172719047Y-48287142D02*
X172766666Y-48334761D01*
X172909523Y-48382380D01*
X173004761Y-48382380D01*
X173147619Y-48334761D01*
X173242857Y-48239523D01*
X173290476Y-48144285D01*
X173338095Y-47953809D01*
X173338095Y-47810952D01*
X173290476Y-47620476D01*
X173242857Y-47525238D01*
X173147619Y-47430000D01*
X173004761Y-47382380D01*
X172909523Y-47382380D01*
X172766666Y-47430000D01*
X172719047Y-47477619D01*
X171766666Y-48382380D02*
X172338095Y-48382380D01*
X172052380Y-48382380D02*
X172052380Y-47382380D01*
X172147619Y-47525238D01*
X172242857Y-47620476D01*
X172338095Y-47668095D01*
X170814285Y-48382380D02*
X171385714Y-48382380D01*
X171100000Y-48382380D02*
X171100000Y-47382380D01*
X171195238Y-47525238D01*
X171290476Y-47620476D01*
X171385714Y-47668095D01*
X169909523Y-47382380D02*
X170385714Y-47382380D01*
X170433333Y-47858571D01*
X170385714Y-47810952D01*
X170290476Y-47763333D01*
X170052380Y-47763333D01*
X169957142Y-47810952D01*
X169909523Y-47858571D01*
X169861904Y-47953809D01*
X169861904Y-48191904D01*
X169909523Y-48287142D01*
X169957142Y-48334761D01*
X170052380Y-48382380D01*
X170290476Y-48382380D01*
X170385714Y-48334761D01*
X170433333Y-48287142D01*
%TO.C,FB502*%
X203828571Y-31514285D02*
X203828571Y-31180952D01*
X204352380Y-31180952D02*
X203352380Y-31180952D01*
X203352380Y-31657142D01*
X203828571Y-32371428D02*
X203876190Y-32514285D01*
X203923809Y-32561904D01*
X204019047Y-32609523D01*
X204161904Y-32609523D01*
X204257142Y-32561904D01*
X204304761Y-32514285D01*
X204352380Y-32419047D01*
X204352380Y-32038095D01*
X203352380Y-32038095D01*
X203352380Y-32371428D01*
X203400000Y-32466666D01*
X203447619Y-32514285D01*
X203542857Y-32561904D01*
X203638095Y-32561904D01*
X203733333Y-32514285D01*
X203780952Y-32466666D01*
X203828571Y-32371428D01*
X203828571Y-32038095D01*
X203352380Y-33514285D02*
X203352380Y-33038095D01*
X203828571Y-32990476D01*
X203780952Y-33038095D01*
X203733333Y-33133333D01*
X203733333Y-33371428D01*
X203780952Y-33466666D01*
X203828571Y-33514285D01*
X203923809Y-33561904D01*
X204161904Y-33561904D01*
X204257142Y-33514285D01*
X204304761Y-33466666D01*
X204352380Y-33371428D01*
X204352380Y-33133333D01*
X204304761Y-33038095D01*
X204257142Y-32990476D01*
X203352380Y-34180952D02*
X203352380Y-34276190D01*
X203400000Y-34371428D01*
X203447619Y-34419047D01*
X203542857Y-34466666D01*
X203733333Y-34514285D01*
X203971428Y-34514285D01*
X204161904Y-34466666D01*
X204257142Y-34419047D01*
X204304761Y-34371428D01*
X204352380Y-34276190D01*
X204352380Y-34180952D01*
X204304761Y-34085714D01*
X204257142Y-34038095D01*
X204161904Y-33990476D01*
X203971428Y-33942857D01*
X203733333Y-33942857D01*
X203542857Y-33990476D01*
X203447619Y-34038095D01*
X203400000Y-34085714D01*
X203352380Y-34180952D01*
X203447619Y-34895238D02*
X203400000Y-34942857D01*
X203352380Y-35038095D01*
X203352380Y-35276190D01*
X203400000Y-35371428D01*
X203447619Y-35419047D01*
X203542857Y-35466666D01*
X203638095Y-35466666D01*
X203780952Y-35419047D01*
X204352380Y-34847619D01*
X204352380Y-35466666D01*
%TO.C,C506*%
X207757142Y-32680952D02*
X207804761Y-32633333D01*
X207852380Y-32490476D01*
X207852380Y-32395238D01*
X207804761Y-32252380D01*
X207709523Y-32157142D01*
X207614285Y-32109523D01*
X207423809Y-32061904D01*
X207280952Y-32061904D01*
X207090476Y-32109523D01*
X206995238Y-32157142D01*
X206900000Y-32252380D01*
X206852380Y-32395238D01*
X206852380Y-32490476D01*
X206900000Y-32633333D01*
X206947619Y-32680952D01*
X206852380Y-33585714D02*
X206852380Y-33109523D01*
X207328571Y-33061904D01*
X207280952Y-33109523D01*
X207233333Y-33204761D01*
X207233333Y-33442857D01*
X207280952Y-33538095D01*
X207328571Y-33585714D01*
X207423809Y-33633333D01*
X207661904Y-33633333D01*
X207757142Y-33585714D01*
X207804761Y-33538095D01*
X207852380Y-33442857D01*
X207852380Y-33204761D01*
X207804761Y-33109523D01*
X207757142Y-33061904D01*
X206852380Y-34252380D02*
X206852380Y-34347619D01*
X206900000Y-34442857D01*
X206947619Y-34490476D01*
X207042857Y-34538095D01*
X207233333Y-34585714D01*
X207471428Y-34585714D01*
X207661904Y-34538095D01*
X207757142Y-34490476D01*
X207804761Y-34442857D01*
X207852380Y-34347619D01*
X207852380Y-34252380D01*
X207804761Y-34157142D01*
X207757142Y-34109523D01*
X207661904Y-34061904D01*
X207471428Y-34014285D01*
X207233333Y-34014285D01*
X207042857Y-34061904D01*
X206947619Y-34109523D01*
X206900000Y-34157142D01*
X206852380Y-34252380D01*
X206852380Y-35442857D02*
X206852380Y-35252380D01*
X206900000Y-35157142D01*
X206947619Y-35109523D01*
X207090476Y-35014285D01*
X207280952Y-34966666D01*
X207661904Y-34966666D01*
X207757142Y-35014285D01*
X207804761Y-35061904D01*
X207852380Y-35157142D01*
X207852380Y-35347619D01*
X207804761Y-35442857D01*
X207757142Y-35490476D01*
X207661904Y-35538095D01*
X207423809Y-35538095D01*
X207328571Y-35490476D01*
X207280952Y-35442857D01*
X207233333Y-35347619D01*
X207233333Y-35157142D01*
X207280952Y-35061904D01*
X207328571Y-35014285D01*
X207423809Y-34966666D01*
%TO.C,C505*%
X205757142Y-32680952D02*
X205804761Y-32633333D01*
X205852380Y-32490476D01*
X205852380Y-32395238D01*
X205804761Y-32252380D01*
X205709523Y-32157142D01*
X205614285Y-32109523D01*
X205423809Y-32061904D01*
X205280952Y-32061904D01*
X205090476Y-32109523D01*
X204995238Y-32157142D01*
X204900000Y-32252380D01*
X204852380Y-32395238D01*
X204852380Y-32490476D01*
X204900000Y-32633333D01*
X204947619Y-32680952D01*
X204852380Y-33585714D02*
X204852380Y-33109523D01*
X205328571Y-33061904D01*
X205280952Y-33109523D01*
X205233333Y-33204761D01*
X205233333Y-33442857D01*
X205280952Y-33538095D01*
X205328571Y-33585714D01*
X205423809Y-33633333D01*
X205661904Y-33633333D01*
X205757142Y-33585714D01*
X205804761Y-33538095D01*
X205852380Y-33442857D01*
X205852380Y-33204761D01*
X205804761Y-33109523D01*
X205757142Y-33061904D01*
X204852380Y-34252380D02*
X204852380Y-34347619D01*
X204900000Y-34442857D01*
X204947619Y-34490476D01*
X205042857Y-34538095D01*
X205233333Y-34585714D01*
X205471428Y-34585714D01*
X205661904Y-34538095D01*
X205757142Y-34490476D01*
X205804761Y-34442857D01*
X205852380Y-34347619D01*
X205852380Y-34252380D01*
X205804761Y-34157142D01*
X205757142Y-34109523D01*
X205661904Y-34061904D01*
X205471428Y-34014285D01*
X205233333Y-34014285D01*
X205042857Y-34061904D01*
X204947619Y-34109523D01*
X204900000Y-34157142D01*
X204852380Y-34252380D01*
X204852380Y-35490476D02*
X204852380Y-35014285D01*
X205328571Y-34966666D01*
X205280952Y-35014285D01*
X205233333Y-35109523D01*
X205233333Y-35347619D01*
X205280952Y-35442857D01*
X205328571Y-35490476D01*
X205423809Y-35538095D01*
X205661904Y-35538095D01*
X205757142Y-35490476D01*
X205804761Y-35442857D01*
X205852380Y-35347619D01*
X205852380Y-35109523D01*
X205804761Y-35014285D01*
X205757142Y-34966666D01*
%TO.C,C101*%
X171119047Y-33857142D02*
X171166666Y-33904761D01*
X171309523Y-33952380D01*
X171404761Y-33952380D01*
X171547619Y-33904761D01*
X171642857Y-33809523D01*
X171690476Y-33714285D01*
X171738095Y-33523809D01*
X171738095Y-33380952D01*
X171690476Y-33190476D01*
X171642857Y-33095238D01*
X171547619Y-33000000D01*
X171404761Y-32952380D01*
X171309523Y-32952380D01*
X171166666Y-33000000D01*
X171119047Y-33047619D01*
X170166666Y-33952380D02*
X170738095Y-33952380D01*
X170452380Y-33952380D02*
X170452380Y-32952380D01*
X170547619Y-33095238D01*
X170642857Y-33190476D01*
X170738095Y-33238095D01*
X169547619Y-32952380D02*
X169452380Y-32952380D01*
X169357142Y-33000000D01*
X169309523Y-33047619D01*
X169261904Y-33142857D01*
X169214285Y-33333333D01*
X169214285Y-33571428D01*
X169261904Y-33761904D01*
X169309523Y-33857142D01*
X169357142Y-33904761D01*
X169452380Y-33952380D01*
X169547619Y-33952380D01*
X169642857Y-33904761D01*
X169690476Y-33857142D01*
X169738095Y-33761904D01*
X169785714Y-33571428D01*
X169785714Y-33333333D01*
X169738095Y-33142857D01*
X169690476Y-33047619D01*
X169642857Y-33000000D01*
X169547619Y-32952380D01*
X168261904Y-33952380D02*
X168833333Y-33952380D01*
X168547619Y-33952380D02*
X168547619Y-32952380D01*
X168642857Y-33095238D01*
X168738095Y-33190476D01*
X168833333Y-33238095D01*
%TO.C,C302*%
X205369047Y-70607142D02*
X205416666Y-70654761D01*
X205559523Y-70702380D01*
X205654761Y-70702380D01*
X205797619Y-70654761D01*
X205892857Y-70559523D01*
X205940476Y-70464285D01*
X205988095Y-70273809D01*
X205988095Y-70130952D01*
X205940476Y-69940476D01*
X205892857Y-69845238D01*
X205797619Y-69750000D01*
X205654761Y-69702380D01*
X205559523Y-69702380D01*
X205416666Y-69750000D01*
X205369047Y-69797619D01*
X205035714Y-69702380D02*
X204416666Y-69702380D01*
X204750000Y-70083333D01*
X204607142Y-70083333D01*
X204511904Y-70130952D01*
X204464285Y-70178571D01*
X204416666Y-70273809D01*
X204416666Y-70511904D01*
X204464285Y-70607142D01*
X204511904Y-70654761D01*
X204607142Y-70702380D01*
X204892857Y-70702380D01*
X204988095Y-70654761D01*
X205035714Y-70607142D01*
X203797619Y-69702380D02*
X203702380Y-69702380D01*
X203607142Y-69750000D01*
X203559523Y-69797619D01*
X203511904Y-69892857D01*
X203464285Y-70083333D01*
X203464285Y-70321428D01*
X203511904Y-70511904D01*
X203559523Y-70607142D01*
X203607142Y-70654761D01*
X203702380Y-70702380D01*
X203797619Y-70702380D01*
X203892857Y-70654761D01*
X203940476Y-70607142D01*
X203988095Y-70511904D01*
X204035714Y-70321428D01*
X204035714Y-70083333D01*
X203988095Y-69892857D01*
X203940476Y-69797619D01*
X203892857Y-69750000D01*
X203797619Y-69702380D01*
X203083333Y-69797619D02*
X203035714Y-69750000D01*
X202940476Y-69702380D01*
X202702380Y-69702380D01*
X202607142Y-69750000D01*
X202559523Y-69797619D01*
X202511904Y-69892857D01*
X202511904Y-69988095D01*
X202559523Y-70130952D01*
X203130952Y-70702380D01*
X202511904Y-70702380D01*
%TO.C,FB401*%
X224928571Y-92464285D02*
X224928571Y-92130952D01*
X225452380Y-92130952D02*
X224452380Y-92130952D01*
X224452380Y-92607142D01*
X224928571Y-93321428D02*
X224976190Y-93464285D01*
X225023809Y-93511904D01*
X225119047Y-93559523D01*
X225261904Y-93559523D01*
X225357142Y-93511904D01*
X225404761Y-93464285D01*
X225452380Y-93369047D01*
X225452380Y-92988095D01*
X224452380Y-92988095D01*
X224452380Y-93321428D01*
X224500000Y-93416666D01*
X224547619Y-93464285D01*
X224642857Y-93511904D01*
X224738095Y-93511904D01*
X224833333Y-93464285D01*
X224880952Y-93416666D01*
X224928571Y-93321428D01*
X224928571Y-92988095D01*
X224785714Y-94416666D02*
X225452380Y-94416666D01*
X224404761Y-94178571D02*
X225119047Y-93940476D01*
X225119047Y-94559523D01*
X224452380Y-95130952D02*
X224452380Y-95226190D01*
X224500000Y-95321428D01*
X224547619Y-95369047D01*
X224642857Y-95416666D01*
X224833333Y-95464285D01*
X225071428Y-95464285D01*
X225261904Y-95416666D01*
X225357142Y-95369047D01*
X225404761Y-95321428D01*
X225452380Y-95226190D01*
X225452380Y-95130952D01*
X225404761Y-95035714D01*
X225357142Y-94988095D01*
X225261904Y-94940476D01*
X225071428Y-94892857D01*
X224833333Y-94892857D01*
X224642857Y-94940476D01*
X224547619Y-94988095D01*
X224500000Y-95035714D01*
X224452380Y-95130952D01*
X225452380Y-96416666D02*
X225452380Y-95845238D01*
X225452380Y-96130952D02*
X224452380Y-96130952D01*
X224595238Y-96035714D01*
X224690476Y-95940476D01*
X224738095Y-95845238D01*
%TO.C,C102*%
X163357142Y-34630952D02*
X163404761Y-34583333D01*
X163452380Y-34440476D01*
X163452380Y-34345238D01*
X163404761Y-34202380D01*
X163309523Y-34107142D01*
X163214285Y-34059523D01*
X163023809Y-34011904D01*
X162880952Y-34011904D01*
X162690476Y-34059523D01*
X162595238Y-34107142D01*
X162500000Y-34202380D01*
X162452380Y-34345238D01*
X162452380Y-34440476D01*
X162500000Y-34583333D01*
X162547619Y-34630952D01*
X163452380Y-35583333D02*
X163452380Y-35011904D01*
X163452380Y-35297619D02*
X162452380Y-35297619D01*
X162595238Y-35202380D01*
X162690476Y-35107142D01*
X162738095Y-35011904D01*
X162452380Y-36202380D02*
X162452380Y-36297619D01*
X162500000Y-36392857D01*
X162547619Y-36440476D01*
X162642857Y-36488095D01*
X162833333Y-36535714D01*
X163071428Y-36535714D01*
X163261904Y-36488095D01*
X163357142Y-36440476D01*
X163404761Y-36392857D01*
X163452380Y-36297619D01*
X163452380Y-36202380D01*
X163404761Y-36107142D01*
X163357142Y-36059523D01*
X163261904Y-36011904D01*
X163071428Y-35964285D01*
X162833333Y-35964285D01*
X162642857Y-36011904D01*
X162547619Y-36059523D01*
X162500000Y-36107142D01*
X162452380Y-36202380D01*
X162547619Y-36916666D02*
X162500000Y-36964285D01*
X162452380Y-37059523D01*
X162452380Y-37297619D01*
X162500000Y-37392857D01*
X162547619Y-37440476D01*
X162642857Y-37488095D01*
X162738095Y-37488095D01*
X162880952Y-37440476D01*
X163452380Y-36869047D01*
X163452380Y-37488095D01*
%TO.C,C111*%
X166357142Y-49880952D02*
X166404761Y-49833333D01*
X166452380Y-49690476D01*
X166452380Y-49595238D01*
X166404761Y-49452380D01*
X166309523Y-49357142D01*
X166214285Y-49309523D01*
X166023809Y-49261904D01*
X165880952Y-49261904D01*
X165690476Y-49309523D01*
X165595238Y-49357142D01*
X165500000Y-49452380D01*
X165452380Y-49595238D01*
X165452380Y-49690476D01*
X165500000Y-49833333D01*
X165547619Y-49880952D01*
X166452380Y-50833333D02*
X166452380Y-50261904D01*
X166452380Y-50547619D02*
X165452380Y-50547619D01*
X165595238Y-50452380D01*
X165690476Y-50357142D01*
X165738095Y-50261904D01*
X166452380Y-51785714D02*
X166452380Y-51214285D01*
X166452380Y-51500000D02*
X165452380Y-51500000D01*
X165595238Y-51404761D01*
X165690476Y-51309523D01*
X165738095Y-51214285D01*
X166452380Y-52738095D02*
X166452380Y-52166666D01*
X166452380Y-52452380D02*
X165452380Y-52452380D01*
X165595238Y-52357142D01*
X165690476Y-52261904D01*
X165738095Y-52166666D01*
%TO.C,C107*%
X163619047Y-45357142D02*
X163666666Y-45404761D01*
X163809523Y-45452380D01*
X163904761Y-45452380D01*
X164047619Y-45404761D01*
X164142857Y-45309523D01*
X164190476Y-45214285D01*
X164238095Y-45023809D01*
X164238095Y-44880952D01*
X164190476Y-44690476D01*
X164142857Y-44595238D01*
X164047619Y-44500000D01*
X163904761Y-44452380D01*
X163809523Y-44452380D01*
X163666666Y-44500000D01*
X163619047Y-44547619D01*
X162666666Y-45452380D02*
X163238095Y-45452380D01*
X162952380Y-45452380D02*
X162952380Y-44452380D01*
X163047619Y-44595238D01*
X163142857Y-44690476D01*
X163238095Y-44738095D01*
X162047619Y-44452380D02*
X161952380Y-44452380D01*
X161857142Y-44500000D01*
X161809523Y-44547619D01*
X161761904Y-44642857D01*
X161714285Y-44833333D01*
X161714285Y-45071428D01*
X161761904Y-45261904D01*
X161809523Y-45357142D01*
X161857142Y-45404761D01*
X161952380Y-45452380D01*
X162047619Y-45452380D01*
X162142857Y-45404761D01*
X162190476Y-45357142D01*
X162238095Y-45261904D01*
X162285714Y-45071428D01*
X162285714Y-44833333D01*
X162238095Y-44642857D01*
X162190476Y-44547619D01*
X162142857Y-44500000D01*
X162047619Y-44452380D01*
X161380952Y-44452380D02*
X160714285Y-44452380D01*
X161142857Y-45452380D01*
%TO.C,C402*%
X220119047Y-89607142D02*
X220166666Y-89654761D01*
X220309523Y-89702380D01*
X220404761Y-89702380D01*
X220547619Y-89654761D01*
X220642857Y-89559523D01*
X220690476Y-89464285D01*
X220738095Y-89273809D01*
X220738095Y-89130952D01*
X220690476Y-88940476D01*
X220642857Y-88845238D01*
X220547619Y-88750000D01*
X220404761Y-88702380D01*
X220309523Y-88702380D01*
X220166666Y-88750000D01*
X220119047Y-88797619D01*
X219261904Y-89035714D02*
X219261904Y-89702380D01*
X219500000Y-88654761D02*
X219738095Y-89369047D01*
X219119047Y-89369047D01*
X218547619Y-88702380D02*
X218452380Y-88702380D01*
X218357142Y-88750000D01*
X218309523Y-88797619D01*
X218261904Y-88892857D01*
X218214285Y-89083333D01*
X218214285Y-89321428D01*
X218261904Y-89511904D01*
X218309523Y-89607142D01*
X218357142Y-89654761D01*
X218452380Y-89702380D01*
X218547619Y-89702380D01*
X218642857Y-89654761D01*
X218690476Y-89607142D01*
X218738095Y-89511904D01*
X218785714Y-89321428D01*
X218785714Y-89083333D01*
X218738095Y-88892857D01*
X218690476Y-88797619D01*
X218642857Y-88750000D01*
X218547619Y-88702380D01*
X217833333Y-88797619D02*
X217785714Y-88750000D01*
X217690476Y-88702380D01*
X217452380Y-88702380D01*
X217357142Y-88750000D01*
X217309523Y-88797619D01*
X217261904Y-88892857D01*
X217261904Y-88988095D01*
X217309523Y-89130952D01*
X217880952Y-89702380D01*
X217261904Y-89702380D01*
%TO.C,FB101*%
X167428571Y-49714285D02*
X167428571Y-49380952D01*
X167952380Y-49380952D02*
X166952380Y-49380952D01*
X166952380Y-49857142D01*
X167428571Y-50571428D02*
X167476190Y-50714285D01*
X167523809Y-50761904D01*
X167619047Y-50809523D01*
X167761904Y-50809523D01*
X167857142Y-50761904D01*
X167904761Y-50714285D01*
X167952380Y-50619047D01*
X167952380Y-50238095D01*
X166952380Y-50238095D01*
X166952380Y-50571428D01*
X167000000Y-50666666D01*
X167047619Y-50714285D01*
X167142857Y-50761904D01*
X167238095Y-50761904D01*
X167333333Y-50714285D01*
X167380952Y-50666666D01*
X167428571Y-50571428D01*
X167428571Y-50238095D01*
X167952380Y-51761904D02*
X167952380Y-51190476D01*
X167952380Y-51476190D02*
X166952380Y-51476190D01*
X167095238Y-51380952D01*
X167190476Y-51285714D01*
X167238095Y-51190476D01*
X166952380Y-52380952D02*
X166952380Y-52476190D01*
X167000000Y-52571428D01*
X167047619Y-52619047D01*
X167142857Y-52666666D01*
X167333333Y-52714285D01*
X167571428Y-52714285D01*
X167761904Y-52666666D01*
X167857142Y-52619047D01*
X167904761Y-52571428D01*
X167952380Y-52476190D01*
X167952380Y-52380952D01*
X167904761Y-52285714D01*
X167857142Y-52238095D01*
X167761904Y-52190476D01*
X167571428Y-52142857D01*
X167333333Y-52142857D01*
X167142857Y-52190476D01*
X167047619Y-52238095D01*
X167000000Y-52285714D01*
X166952380Y-52380952D01*
X167952380Y-53666666D02*
X167952380Y-53095238D01*
X167952380Y-53380952D02*
X166952380Y-53380952D01*
X167095238Y-53285714D01*
X167190476Y-53190476D01*
X167238095Y-53095238D01*
%TO.C,FB301*%
X210928571Y-73464285D02*
X210928571Y-73130952D01*
X211452380Y-73130952D02*
X210452380Y-73130952D01*
X210452380Y-73607142D01*
X210928571Y-74321428D02*
X210976190Y-74464285D01*
X211023809Y-74511904D01*
X211119047Y-74559523D01*
X211261904Y-74559523D01*
X211357142Y-74511904D01*
X211404761Y-74464285D01*
X211452380Y-74369047D01*
X211452380Y-73988095D01*
X210452380Y-73988095D01*
X210452380Y-74321428D01*
X210500000Y-74416666D01*
X210547619Y-74464285D01*
X210642857Y-74511904D01*
X210738095Y-74511904D01*
X210833333Y-74464285D01*
X210880952Y-74416666D01*
X210928571Y-74321428D01*
X210928571Y-73988095D01*
X210452380Y-74892857D02*
X210452380Y-75511904D01*
X210833333Y-75178571D01*
X210833333Y-75321428D01*
X210880952Y-75416666D01*
X210928571Y-75464285D01*
X211023809Y-75511904D01*
X211261904Y-75511904D01*
X211357142Y-75464285D01*
X211404761Y-75416666D01*
X211452380Y-75321428D01*
X211452380Y-75035714D01*
X211404761Y-74940476D01*
X211357142Y-74892857D01*
X210452380Y-76130952D02*
X210452380Y-76226190D01*
X210500000Y-76321428D01*
X210547619Y-76369047D01*
X210642857Y-76416666D01*
X210833333Y-76464285D01*
X211071428Y-76464285D01*
X211261904Y-76416666D01*
X211357142Y-76369047D01*
X211404761Y-76321428D01*
X211452380Y-76226190D01*
X211452380Y-76130952D01*
X211404761Y-76035714D01*
X211357142Y-75988095D01*
X211261904Y-75940476D01*
X211071428Y-75892857D01*
X210833333Y-75892857D01*
X210642857Y-75940476D01*
X210547619Y-75988095D01*
X210500000Y-76035714D01*
X210452380Y-76130952D01*
X211452380Y-77416666D02*
X211452380Y-76845238D01*
X211452380Y-77130952D02*
X210452380Y-77130952D01*
X210595238Y-77035714D01*
X210690476Y-76940476D01*
X210738095Y-76845238D01*
%TO.C,NT202*%
X213452380Y-92404761D02*
X212452380Y-92404761D01*
X213452380Y-92976190D01*
X212452380Y-92976190D01*
X212452380Y-93309523D02*
X212452380Y-93880952D01*
X213452380Y-93595238D02*
X212452380Y-93595238D01*
X212547619Y-94166666D02*
X212500000Y-94214285D01*
X212452380Y-94309523D01*
X212452380Y-94547619D01*
X212500000Y-94642857D01*
X212547619Y-94690476D01*
X212642857Y-94738095D01*
X212738095Y-94738095D01*
X212880952Y-94690476D01*
X213452380Y-94119047D01*
X213452380Y-94738095D01*
X212452380Y-95357142D02*
X212452380Y-95452380D01*
X212500000Y-95547619D01*
X212547619Y-95595238D01*
X212642857Y-95642857D01*
X212833333Y-95690476D01*
X213071428Y-95690476D01*
X213261904Y-95642857D01*
X213357142Y-95595238D01*
X213404761Y-95547619D01*
X213452380Y-95452380D01*
X213452380Y-95357142D01*
X213404761Y-95261904D01*
X213357142Y-95214285D01*
X213261904Y-95166666D01*
X213071428Y-95119047D01*
X212833333Y-95119047D01*
X212642857Y-95166666D01*
X212547619Y-95214285D01*
X212500000Y-95261904D01*
X212452380Y-95357142D01*
X212547619Y-96071428D02*
X212500000Y-96119047D01*
X212452380Y-96214285D01*
X212452380Y-96452380D01*
X212500000Y-96547619D01*
X212547619Y-96595238D01*
X212642857Y-96642857D01*
X212738095Y-96642857D01*
X212880952Y-96595238D01*
X213452380Y-96023809D01*
X213452380Y-96642857D01*
%TO.C,U202*%
X199964285Y-89452380D02*
X199964285Y-90261904D01*
X199916666Y-90357142D01*
X199869047Y-90404761D01*
X199773809Y-90452380D01*
X199583333Y-90452380D01*
X199488095Y-90404761D01*
X199440476Y-90357142D01*
X199392857Y-90261904D01*
X199392857Y-89452380D01*
X198964285Y-89547619D02*
X198916666Y-89500000D01*
X198821428Y-89452380D01*
X198583333Y-89452380D01*
X198488095Y-89500000D01*
X198440476Y-89547619D01*
X198392857Y-89642857D01*
X198392857Y-89738095D01*
X198440476Y-89880952D01*
X199011904Y-90452380D01*
X198392857Y-90452380D01*
X197773809Y-89452380D02*
X197678571Y-89452380D01*
X197583333Y-89500000D01*
X197535714Y-89547619D01*
X197488095Y-89642857D01*
X197440476Y-89833333D01*
X197440476Y-90071428D01*
X197488095Y-90261904D01*
X197535714Y-90357142D01*
X197583333Y-90404761D01*
X197678571Y-90452380D01*
X197773809Y-90452380D01*
X197869047Y-90404761D01*
X197916666Y-90357142D01*
X197964285Y-90261904D01*
X198011904Y-90071428D01*
X198011904Y-89833333D01*
X197964285Y-89642857D01*
X197916666Y-89547619D01*
X197869047Y-89500000D01*
X197773809Y-89452380D01*
X197059523Y-89547619D02*
X197011904Y-89500000D01*
X196916666Y-89452380D01*
X196678571Y-89452380D01*
X196583333Y-89500000D01*
X196535714Y-89547619D01*
X196488095Y-89642857D01*
X196488095Y-89738095D01*
X196535714Y-89880952D01*
X197107142Y-90452380D01*
X196488095Y-90452380D01*
%TO.C,J202*%
X205702380Y-113964285D02*
X206416666Y-113964285D01*
X206559523Y-113916666D01*
X206654761Y-113821428D01*
X206702380Y-113678571D01*
X206702380Y-113583333D01*
X205797619Y-114392857D02*
X205750000Y-114440476D01*
X205702380Y-114535714D01*
X205702380Y-114773809D01*
X205750000Y-114869047D01*
X205797619Y-114916666D01*
X205892857Y-114964285D01*
X205988095Y-114964285D01*
X206130952Y-114916666D01*
X206702380Y-114345238D01*
X206702380Y-114964285D01*
X205702380Y-115583333D02*
X205702380Y-115678571D01*
X205750000Y-115773809D01*
X205797619Y-115821428D01*
X205892857Y-115869047D01*
X206083333Y-115916666D01*
X206321428Y-115916666D01*
X206511904Y-115869047D01*
X206607142Y-115821428D01*
X206654761Y-115773809D01*
X206702380Y-115678571D01*
X206702380Y-115583333D01*
X206654761Y-115488095D01*
X206607142Y-115440476D01*
X206511904Y-115392857D01*
X206321428Y-115345238D01*
X206083333Y-115345238D01*
X205892857Y-115392857D01*
X205797619Y-115440476D01*
X205750000Y-115488095D01*
X205702380Y-115583333D01*
X205797619Y-116297619D02*
X205750000Y-116345238D01*
X205702380Y-116440476D01*
X205702380Y-116678571D01*
X205750000Y-116773809D01*
X205797619Y-116821428D01*
X205892857Y-116869047D01*
X205988095Y-116869047D01*
X206130952Y-116821428D01*
X206702380Y-116250000D01*
X206702380Y-116869047D01*
%TO.C,NT203*%
X205174880Y-89894761D02*
X204174880Y-89894761D01*
X205174880Y-90466190D01*
X204174880Y-90466190D01*
X204174880Y-90799523D02*
X204174880Y-91370952D01*
X205174880Y-91085238D02*
X204174880Y-91085238D01*
X204270119Y-91656666D02*
X204222500Y-91704285D01*
X204174880Y-91799523D01*
X204174880Y-92037619D01*
X204222500Y-92132857D01*
X204270119Y-92180476D01*
X204365357Y-92228095D01*
X204460595Y-92228095D01*
X204603452Y-92180476D01*
X205174880Y-91609047D01*
X205174880Y-92228095D01*
X204174880Y-92847142D02*
X204174880Y-92942380D01*
X204222500Y-93037619D01*
X204270119Y-93085238D01*
X204365357Y-93132857D01*
X204555833Y-93180476D01*
X204793928Y-93180476D01*
X204984404Y-93132857D01*
X205079642Y-93085238D01*
X205127261Y-93037619D01*
X205174880Y-92942380D01*
X205174880Y-92847142D01*
X205127261Y-92751904D01*
X205079642Y-92704285D01*
X204984404Y-92656666D01*
X204793928Y-92609047D01*
X204555833Y-92609047D01*
X204365357Y-92656666D01*
X204270119Y-92704285D01*
X204222500Y-92751904D01*
X204174880Y-92847142D01*
X204174880Y-93513809D02*
X204174880Y-94132857D01*
X204555833Y-93799523D01*
X204555833Y-93942380D01*
X204603452Y-94037619D01*
X204651071Y-94085238D01*
X204746309Y-94132857D01*
X204984404Y-94132857D01*
X205079642Y-94085238D01*
X205127261Y-94037619D01*
X205174880Y-93942380D01*
X205174880Y-93656666D01*
X205127261Y-93561428D01*
X205079642Y-93513809D01*
%TO.C,J401*%
X227509880Y-104744285D02*
X228224166Y-104744285D01*
X228367023Y-104696666D01*
X228462261Y-104601428D01*
X228509880Y-104458571D01*
X228509880Y-104363333D01*
X227843214Y-105649047D02*
X228509880Y-105649047D01*
X227462261Y-105410952D02*
X228176547Y-105172857D01*
X228176547Y-105791904D01*
X227509880Y-106363333D02*
X227509880Y-106458571D01*
X227557500Y-106553809D01*
X227605119Y-106601428D01*
X227700357Y-106649047D01*
X227890833Y-106696666D01*
X228128928Y-106696666D01*
X228319404Y-106649047D01*
X228414642Y-106601428D01*
X228462261Y-106553809D01*
X228509880Y-106458571D01*
X228509880Y-106363333D01*
X228462261Y-106268095D01*
X228414642Y-106220476D01*
X228319404Y-106172857D01*
X228128928Y-106125238D01*
X227890833Y-106125238D01*
X227700357Y-106172857D01*
X227605119Y-106220476D01*
X227557500Y-106268095D01*
X227509880Y-106363333D01*
X228509880Y-107649047D02*
X228509880Y-107077619D01*
X228509880Y-107363333D02*
X227509880Y-107363333D01*
X227652738Y-107268095D01*
X227747976Y-107172857D01*
X227795595Y-107077619D01*
%TO.C,U203*%
X188728035Y-89452380D02*
X188728035Y-90261904D01*
X188680416Y-90357142D01*
X188632797Y-90404761D01*
X188537559Y-90452380D01*
X188347083Y-90452380D01*
X188251845Y-90404761D01*
X188204226Y-90357142D01*
X188156607Y-90261904D01*
X188156607Y-89452380D01*
X187728035Y-89547619D02*
X187680416Y-89500000D01*
X187585178Y-89452380D01*
X187347083Y-89452380D01*
X187251845Y-89500000D01*
X187204226Y-89547619D01*
X187156607Y-89642857D01*
X187156607Y-89738095D01*
X187204226Y-89880952D01*
X187775654Y-90452380D01*
X187156607Y-90452380D01*
X186537559Y-89452380D02*
X186442321Y-89452380D01*
X186347083Y-89500000D01*
X186299464Y-89547619D01*
X186251845Y-89642857D01*
X186204226Y-89833333D01*
X186204226Y-90071428D01*
X186251845Y-90261904D01*
X186299464Y-90357142D01*
X186347083Y-90404761D01*
X186442321Y-90452380D01*
X186537559Y-90452380D01*
X186632797Y-90404761D01*
X186680416Y-90357142D01*
X186728035Y-90261904D01*
X186775654Y-90071428D01*
X186775654Y-89833333D01*
X186728035Y-89642857D01*
X186680416Y-89547619D01*
X186632797Y-89500000D01*
X186537559Y-89452380D01*
X185870892Y-89452380D02*
X185251845Y-89452380D01*
X185585178Y-89833333D01*
X185442321Y-89833333D01*
X185347083Y-89880952D01*
X185299464Y-89928571D01*
X185251845Y-90023809D01*
X185251845Y-90261904D01*
X185299464Y-90357142D01*
X185347083Y-90404761D01*
X185442321Y-90452380D01*
X185728035Y-90452380D01*
X185823273Y-90404761D01*
X185870892Y-90357142D01*
%TO.C,J301*%
X224102380Y-69214285D02*
X224816666Y-69214285D01*
X224959523Y-69166666D01*
X225054761Y-69071428D01*
X225102380Y-68928571D01*
X225102380Y-68833333D01*
X224102380Y-69595238D02*
X224102380Y-70214285D01*
X224483333Y-69880952D01*
X224483333Y-70023809D01*
X224530952Y-70119047D01*
X224578571Y-70166666D01*
X224673809Y-70214285D01*
X224911904Y-70214285D01*
X225007142Y-70166666D01*
X225054761Y-70119047D01*
X225102380Y-70023809D01*
X225102380Y-69738095D01*
X225054761Y-69642857D01*
X225007142Y-69595238D01*
X224102380Y-70833333D02*
X224102380Y-70928571D01*
X224150000Y-71023809D01*
X224197619Y-71071428D01*
X224292857Y-71119047D01*
X224483333Y-71166666D01*
X224721428Y-71166666D01*
X224911904Y-71119047D01*
X225007142Y-71071428D01*
X225054761Y-71023809D01*
X225102380Y-70928571D01*
X225102380Y-70833333D01*
X225054761Y-70738095D01*
X225007142Y-70690476D01*
X224911904Y-70642857D01*
X224721428Y-70595238D01*
X224483333Y-70595238D01*
X224292857Y-70642857D01*
X224197619Y-70690476D01*
X224150000Y-70738095D01*
X224102380Y-70833333D01*
X225102380Y-72119047D02*
X225102380Y-71547619D01*
X225102380Y-71833333D02*
X224102380Y-71833333D01*
X224245238Y-71738095D01*
X224340476Y-71642857D01*
X224388095Y-71547619D01*
%TO.C,NT201*%
X193452380Y-90596011D02*
X192452380Y-90596011D01*
X193452380Y-91167440D01*
X192452380Y-91167440D01*
X192452380Y-91500773D02*
X192452380Y-92072202D01*
X193452380Y-91786488D02*
X192452380Y-91786488D01*
X192547619Y-92357916D02*
X192500000Y-92405535D01*
X192452380Y-92500773D01*
X192452380Y-92738869D01*
X192500000Y-92834107D01*
X192547619Y-92881726D01*
X192642857Y-92929345D01*
X192738095Y-92929345D01*
X192880952Y-92881726D01*
X193452380Y-92310297D01*
X193452380Y-92929345D01*
X192452380Y-93548392D02*
X192452380Y-93643630D01*
X192500000Y-93738869D01*
X192547619Y-93786488D01*
X192642857Y-93834107D01*
X192833333Y-93881726D01*
X193071428Y-93881726D01*
X193261904Y-93834107D01*
X193357142Y-93786488D01*
X193404761Y-93738869D01*
X193452380Y-93643630D01*
X193452380Y-93548392D01*
X193404761Y-93453154D01*
X193357142Y-93405535D01*
X193261904Y-93357916D01*
X193071428Y-93310297D01*
X192833333Y-93310297D01*
X192642857Y-93357916D01*
X192547619Y-93405535D01*
X192500000Y-93453154D01*
X192452380Y-93548392D01*
X193452380Y-94834107D02*
X193452380Y-94262678D01*
X193452380Y-94548392D02*
X192452380Y-94548392D01*
X192595238Y-94453154D01*
X192690476Y-94357916D01*
X192738095Y-94262678D01*
%TO.C,J501*%
X227952380Y-34464285D02*
X228666666Y-34464285D01*
X228809523Y-34416666D01*
X228904761Y-34321428D01*
X228952380Y-34178571D01*
X228952380Y-34083333D01*
X227952380Y-35416666D02*
X227952380Y-34940476D01*
X228428571Y-34892857D01*
X228380952Y-34940476D01*
X228333333Y-35035714D01*
X228333333Y-35273809D01*
X228380952Y-35369047D01*
X228428571Y-35416666D01*
X228523809Y-35464285D01*
X228761904Y-35464285D01*
X228857142Y-35416666D01*
X228904761Y-35369047D01*
X228952380Y-35273809D01*
X228952380Y-35035714D01*
X228904761Y-34940476D01*
X228857142Y-34892857D01*
X227952380Y-36083333D02*
X227952380Y-36178571D01*
X228000000Y-36273809D01*
X228047619Y-36321428D01*
X228142857Y-36369047D01*
X228333333Y-36416666D01*
X228571428Y-36416666D01*
X228761904Y-36369047D01*
X228857142Y-36321428D01*
X228904761Y-36273809D01*
X228952380Y-36178571D01*
X228952380Y-36083333D01*
X228904761Y-35988095D01*
X228857142Y-35940476D01*
X228761904Y-35892857D01*
X228571428Y-35845238D01*
X228333333Y-35845238D01*
X228142857Y-35892857D01*
X228047619Y-35940476D01*
X228000000Y-35988095D01*
X227952380Y-36083333D01*
X228952380Y-37369047D02*
X228952380Y-36797619D01*
X228952380Y-37083333D02*
X227952380Y-37083333D01*
X228095238Y-36988095D01*
X228190476Y-36892857D01*
X228238095Y-36797619D01*
D14*
%TO.C,FB501*%
X214490000Y-37971267D02*
X214490000Y-37628733D01*
X215510000Y-37971267D02*
X215510000Y-37628733D01*
%TO.C,C105*%
X166353733Y-34490000D02*
X166646267Y-34490000D01*
X166353733Y-35510000D02*
X166646267Y-35510000D01*
%TO.C,C106*%
X167353733Y-30510000D02*
X167646267Y-30510000D01*
X167353733Y-29490000D02*
X167646267Y-29490000D01*
%TO.C,C301*%
X208087339Y-71850000D02*
X207794805Y-71850000D01*
X208087339Y-72870000D02*
X207794805Y-72870000D01*
%TO.C,C503*%
X212990000Y-37946267D02*
X212990000Y-37653733D01*
X214010000Y-37946267D02*
X214010000Y-37653733D01*
%TO.C,C109*%
X170053733Y-43510000D02*
X170346267Y-43510000D01*
X170053733Y-42490000D02*
X170346267Y-42490000D01*
%TO.C,C112*%
X166646267Y-42490000D02*
X166353733Y-42490000D01*
X166646267Y-43510000D02*
X166353733Y-43510000D01*
%TO.C,C504*%
X207110000Y-52046267D02*
X207110000Y-51753733D01*
X206090000Y-52046267D02*
X206090000Y-51753733D01*
%TO.C,C113*%
X161510000Y-40216233D02*
X161510000Y-40508767D01*
X160490000Y-40216233D02*
X160490000Y-40508767D01*
%TO.C,C104*%
X163990000Y-39353733D02*
X163990000Y-39646267D01*
X165010000Y-39353733D02*
X165010000Y-39646267D01*
%TO.C,C108*%
X167353733Y-30990000D02*
X167646267Y-30990000D01*
X167353733Y-32010000D02*
X167646267Y-32010000D01*
%TO.C,C501*%
X212510000Y-37946267D02*
X212510000Y-37653733D01*
X211490000Y-37946267D02*
X211490000Y-37653733D01*
%TO.C,C103*%
X166510000Y-39353733D02*
X166510000Y-39646267D01*
X165490000Y-39353733D02*
X165490000Y-39646267D01*
%TO.C,C401*%
X222656267Y-91890000D02*
X222363733Y-91890000D01*
X222656267Y-90870000D02*
X222363733Y-90870000D01*
%TO.C,C114*%
X169510000Y-47341233D02*
X169510000Y-47633767D01*
X168490000Y-47341233D02*
X168490000Y-47633767D01*
%TO.C,C115*%
X171453733Y-45990000D02*
X171746267Y-45990000D01*
X171453733Y-47010000D02*
X171746267Y-47010000D01*
%TO.C,FB502*%
X203390000Y-37128733D02*
X203390000Y-37471267D01*
X204410000Y-37128733D02*
X204410000Y-37471267D01*
%TO.C,C506*%
X206890000Y-37446267D02*
X206890000Y-37153733D01*
X207910000Y-37446267D02*
X207910000Y-37153733D01*
%TO.C,C505*%
X204890000Y-37446267D02*
X204890000Y-37153733D01*
X205910000Y-37446267D02*
X205910000Y-37153733D01*
%TO.C,C101*%
X166353733Y-32990000D02*
X166646267Y-32990000D01*
X166353733Y-34010000D02*
X166646267Y-34010000D01*
%TO.C,C302*%
X208087339Y-69850000D02*
X207794805Y-69850000D01*
X208087339Y-70870000D02*
X207794805Y-70870000D01*
%TO.C,FB401*%
X224500000Y-90208733D02*
X224500000Y-90551267D01*
X225520000Y-90208733D02*
X225520000Y-90551267D01*
%TO.C,C102*%
X162490000Y-39353733D02*
X162490000Y-39646267D01*
X163510000Y-39353733D02*
X163510000Y-39646267D01*
%TO.C,C111*%
X166510000Y-47633767D02*
X166510000Y-47341233D01*
X165490000Y-47633767D02*
X165490000Y-47341233D01*
%TO.C,C107*%
X166283767Y-44490000D02*
X165991233Y-44490000D01*
X166283767Y-45510000D02*
X165991233Y-45510000D01*
%TO.C,C402*%
X222656267Y-89890000D02*
X222363733Y-89890000D01*
X222656267Y-88870000D02*
X222363733Y-88870000D01*
%TO.C,FB101*%
X168010000Y-47671267D02*
X168010000Y-47328733D01*
X166990000Y-47671267D02*
X166990000Y-47328733D01*
%TO.C,FB301*%
X211310000Y-71401267D02*
X211310000Y-71058733D01*
X210290000Y-71401267D02*
X210290000Y-71058733D01*
%TO.C,U202*%
X201237500Y-90770000D02*
X196596500Y-90770000D01*
X199727500Y-101010000D02*
X199727500Y-90770000D01*
X196596500Y-101010000D02*
X196596500Y-90770000D01*
X201237500Y-101010000D02*
X196596500Y-101010000D01*
X201237500Y-94039000D02*
X199727500Y-94039000D01*
X201237500Y-101010000D02*
X201237500Y-90770000D01*
X201237500Y-97740000D02*
X199727500Y-97740000D01*
%TO.C,J202*%
X211227000Y-113023000D02*
X211274000Y-113069000D01*
X217560000Y-116660000D02*
X207440000Y-116660000D01*
X207440000Y-106739000D02*
X207440000Y-116660000D01*
X217800000Y-116900000D02*
X217300000Y-116900000D01*
X217560000Y-109699000D02*
X207440000Y-109699000D01*
X208725000Y-110931000D02*
X208772000Y-110977000D01*
X217560000Y-106739000D02*
X207440000Y-106739000D01*
X217800000Y-116160000D02*
X217800000Y-116900000D01*
X217560000Y-106739000D02*
X217560000Y-116660000D01*
X217560000Y-114600000D02*
X207440000Y-114600000D01*
X217560000Y-116100000D02*
X207440000Y-116100000D01*
X208930000Y-110725000D02*
X208965000Y-110761000D01*
X211034000Y-113239000D02*
X211069000Y-113274000D01*
X215683042Y-110464573D02*
G75*
G03*
X214316000Y-110465000I-683041J-1535420D01*
G01*
X216535427Y-112683042D02*
G75*
G03*
X216535000Y-111316000I-1535420J683041D01*
G01*
X213464573Y-111316958D02*
G75*
G03*
X213465000Y-112684000I1535420J-683041D01*
G01*
X214316682Y-113534756D02*
G75*
G03*
X215000000Y-113680000I683317J1534748D01*
G01*
X214971195Y-113680253D02*
G75*
G03*
X215684000Y-113535000I28806J1680254D01*
G01*
X211680000Y-112000000D02*
G75*
G03*
X211680000Y-112000000I-1680000J0D01*
G01*
%TO.C,J401*%
X234207500Y-98030000D02*
X219207500Y-98030000D01*
X219207500Y-113030000D02*
X234207500Y-113030000D01*
X234007500Y-105530000D02*
X233007500Y-104530000D01*
X219207500Y-98030000D02*
X219207500Y-113030000D01*
X234007500Y-105530000D02*
X233007500Y-106530000D01*
X234207500Y-113030000D02*
X234207500Y-98030000D01*
%TO.C,U203*%
X185292750Y-101061250D02*
X185292750Y-90821250D01*
X189933750Y-90821250D02*
X185292750Y-90821250D01*
X189933750Y-101061250D02*
X189933750Y-90821250D01*
X189933750Y-97791250D02*
X188423750Y-97791250D01*
X189933750Y-101061250D02*
X185292750Y-101061250D01*
X188423750Y-101061250D02*
X188423750Y-90821250D01*
X189933750Y-94090250D02*
X188423750Y-94090250D01*
%TO.C,J301*%
X234000000Y-70500000D02*
X233000000Y-71500000D01*
X219200000Y-78000000D02*
X234200000Y-78000000D01*
X234200000Y-63000000D02*
X219200000Y-63000000D01*
X234200000Y-78000000D02*
X234200000Y-63000000D01*
X234000000Y-70500000D02*
X233000000Y-69500000D01*
X219200000Y-63000000D02*
X219200000Y-78000000D01*
%TO.C,J501*%
X219200000Y-43000000D02*
X234200000Y-43000000D01*
X234000000Y-35500000D02*
X233000000Y-34500000D01*
X234000000Y-35500000D02*
X233000000Y-36500000D01*
X234200000Y-28000000D02*
X219200000Y-28000000D01*
X234200000Y-43000000D02*
X234200000Y-28000000D01*
X219200000Y-28000000D02*
X219200000Y-43000000D01*
%TD*%
M02*
